<svg width="45" height="46" viewBox="0 0 45 46" fill="none" xmlns="http://www.w3.org/2000/svg">
<g clip-path="url(#clip0_490_643)">
<path d="M10.9252 34.4359C16.6977 33.026 22.7182 33.026 28.4908 34.4359C28.4908 33.657 28.4346 32.8892 28.5067 32.1337C28.5788 31.3783 28.6667 30.582 28.9466 29.8861C29.391 28.7804 30.2036 27.8673 31.2432 27.3056C32.2827 26.7439 33.4836 26.5689 34.6372 26.8111C35.789 27.0533 36.8241 27.6883 37.5699 28.6102C38.3157 29.5321 38.7272 30.6853 38.7356 31.8774C38.7466 34.3443 37.0542 36.452 34.6323 36.9882C34.5578 37.0043 34.4832 37.0167 34.3464 37.0427V38.2724C34.3464 38.8446 34.3464 39.4167 34.3464 39.9876C34.3305 41.6867 33.2613 42.8211 31.4198 43.0514C31.4198 43.7053 31.4198 44.3666 31.4198 45.0328C31.4198 45.7548 31.1754 45.9975 30.452 46C29.8569 46 29.2618 45.9889 28.668 46C28.4775 46.0192 28.2861 45.9751 28.1225 45.8743C27.959 45.7736 27.8322 45.6217 27.7613 45.4415C27.4277 44.7307 27.0635 44.0359 26.7299 43.3251C26.6937 43.2265 26.6258 43.1431 26.5371 43.0883C26.4485 43.0335 26.3443 43.0105 26.2411 43.0229C21.8959 43.0303 17.5502 43.0303 13.2041 43.0229C12.9402 43.0229 12.7935 43.0985 12.6787 43.3461C12.3561 44.0446 11.9932 44.7245 11.6681 45.4217C11.475 45.8403 11.1793 46.0149 10.7284 46.0012C10.104 45.9814 9.47837 46.0012 8.85273 45.9938C8.28086 45.9864 8.0108 45.7176 8.00347 45.143C7.99492 44.4495 8.00347 43.7573 8.00347 43.1926C7.37416 42.9214 6.78152 42.7567 6.28296 42.431C5.48136 41.9022 5.09766 41.0762 5.08178 40.104C5.06345 39.1022 5.08178 38.0978 5.08178 37.117C4.52945 36.9115 3.98202 36.7628 3.49324 36.5139C1.34993 35.444 0.253832 32.93 0.873364 30.5697C1.17685 29.4213 1.85875 28.4126 2.80586 27.7111C3.75297 27.0097 4.90833 26.6576 6.08011 26.7133C7.2474 26.7773 8.35761 27.2455 9.22507 28.0397C10.0925 28.8338 10.6647 29.9058 10.8457 31.0762C10.8963 31.4426 10.9224 31.8121 10.9239 32.182C10.9337 32.9214 10.9252 33.6619 10.9252 34.4359ZM7.62589 35.6805C8.16232 35.4563 8.65966 35.2359 9.16677 35.0415C9.38184 34.9598 9.46982 34.8545 9.46615 34.6105C9.45027 33.6991 9.46615 32.7876 9.45638 31.8762C9.45104 30.9071 9.07109 29.9789 8.39806 29.2905C7.72503 28.6022 6.81257 28.2087 5.8565 28.1944C3.86104 28.1771 2.19918 29.7771 2.1442 31.7659C2.11099 32.7426 2.45878 33.6931 3.11223 34.4117C3.76568 35.1302 4.67217 35.559 5.63532 35.605C6.30129 35.6433 6.52979 35.8811 6.53224 36.556C6.53224 37.6706 6.53224 38.7851 6.53224 39.8923C6.53224 40.935 7.12244 41.543 8.14033 41.543C15.8533 41.543 23.5659 41.543 31.278 41.543C32.2788 41.543 32.8739 40.9399 32.8788 39.9331C32.8788 38.8186 32.8788 37.704 32.8788 36.5969C32.8788 35.8799 33.0951 35.6471 33.7831 35.6062C34.6977 35.5472 35.5573 35.1431 36.1926 34.4736C36.8278 33.8042 37.1926 32.9178 37.215 31.9893C37.2373 31.0608 36.9157 30.1574 36.3135 29.4573C35.7113 28.7571 34.8722 28.311 33.9615 28.2068C32.1078 28.0149 30.3054 29.3412 30.0512 31.2632C29.896 32.4594 30.0219 33.6929 30.0219 34.9461C30.2663 35.044 30.5681 35.1542 30.8614 35.2793C31.1546 35.4043 31.4589 35.5542 31.7766 35.7003L31.118 36.8817C23.4551 34.1573 15.9022 34.1573 8.29796 36.8904C8.10612 36.5437 7.88372 36.1449 7.62711 35.6805H7.62589ZM9.48937 43.039V44.5573C9.85596 44.504 10.3166 44.5746 10.4914 44.3802C10.8091 44.0297 10.9582 43.5207 11.1964 43.039H9.48937ZM28.2794 43.0489C28.7119 44.4421 28.9466 44.6402 29.9241 44.4557V43.0279H28.4944C28.4297 43.0291 28.3551 43.0415 28.2806 43.0489H28.2794Z" fill="#DB1D1E"/>
<path d="M19.7086 3.70031H18.318C17.8561 1.93684 19.1941 0.108976 21.0063 0.0061901C21.159 -0.00124024 21.3118 0.0061901 21.4633 0.0061901H41.3592C43.406 0.0061901 44.5925 1.20991 44.5925 3.28792C44.5925 15.4043 44.5925 27.5203 44.5925 39.6359C44.5925 41.6867 43.7041 42.7418 41.6598 43.0687C41.6598 43.7226 41.6598 44.3851 41.6598 45.0502C41.6598 45.7474 41.4093 45.9988 40.7238 46.0025C40.1128 46.0025 39.5018 45.9913 38.8908 46.0025C38.4546 46.0136 38.1784 45.8266 37.9927 45.4303C37.6591 44.7195 37.3145 44.0136 36.9443 43.3251C36.8946 43.2499 36.8299 43.1862 36.7543 43.1382C36.6787 43.0902 36.5939 43.0589 36.5056 43.0464C36.0522 43.0093 35.594 43.0341 35.104 43.0341V41.548H41.3958C42.5567 41.548 43.12 40.987 43.12 39.8266C43.12 27.6177 43.12 15.4089 43.12 3.2C43.12 2.06811 42.5469 1.48978 41.4313 1.48978H32.1444V17.044H30.7025V1.48483H21.522C20.2389 1.48483 19.7184 2.00495 19.7086 3.30031C19.7074 3.42043 19.7086 3.54056 19.7086 3.70031ZM38.5267 43.0514C38.958 44.4421 39.1939 44.6402 40.1702 44.4557V43.0514H38.5267Z" fill="#DB1D1E"/>
<path d="M12.3952 5.19381V3.73499H13.8334V5.19381H14.3674C16.0782 5.19381 17.7852 5.19381 19.4886 5.19381C20.1656 5.19381 20.3941 5.41424 20.4491 6.08297C20.6821 8.88338 20.9167 11.6838 21.1529 14.4842C21.2214 15.3003 20.9672 15.5789 20.1473 15.5789H13.8628V17.0303H12.4086V15.5789H6.04347C5.28952 15.5789 5.02314 15.2867 5.08668 14.5263C5.32129 11.6788 5.55876 8.83055 5.79908 5.98142C5.84551 5.43406 6.10335 5.19133 6.66544 5.19009C8.38718 5.19009 10.1101 5.19009 11.8331 5.19009L12.3952 5.19381ZM19.6414 14.0706C19.4385 11.5938 19.2381 9.15666 19.0304 6.70588H7.20433C7.0027 9.1678 6.80108 11.605 6.60068 14.0706H19.6414Z" fill="#DB1D1E"/>
<path d="M6.5334 25.2025H5.10127C5.10127 23.813 5.00473 22.4347 5.12693 21.0762C5.26012 19.5901 6.52485 18.5523 7.9973 18.5498C15.8048 18.5432 23.6119 18.5432 31.4185 18.5498C31.8012 18.5467 32.1806 18.6204 32.535 18.7666C32.8894 18.9128 33.2118 19.1287 33.4835 19.4018C33.7552 19.6748 33.9709 19.9997 34.1182 20.3576C34.2654 20.7156 34.3413 21.0995 34.3414 21.4873C34.3585 22.6464 34.3414 23.8056 34.3414 24.9647C34.3414 25.0266 34.3341 25.0885 34.328 25.1851H32.8824V23.2211C32.8824 22.6799 32.8824 22.1387 32.8824 21.5975C32.8714 20.6526 32.2629 20.0334 31.3281 20.0322C28.5991 20.0272 25.87 20.0272 23.141 20.0322H8.26735C7.08572 20.0322 6.52973 20.5919 6.52851 21.7845L6.5334 25.2025Z" fill="#DB1D1E"/>
<path d="M15.3547 23.0192H16.7563V24.4446H15.3547V23.0192Z" fill="#DB1D1E"/>
<path d="M24.0612 24.4718H22.6707V23.0291H24.0612V24.4718Z" fill="#DB1D1E"/>
<path d="M11.6766 28.166V26.7393H13.0929V28.166H11.6766Z" fill="#DB1D1E"/>
<path d="M19.0206 26.717H20.4112V28.1597H19.0206V26.717Z" fill="#DB1D1E"/>
<path d="M27.7209 28.1808H26.3303V26.7381H27.7209V28.1808Z" fill="#DB1D1E"/>
<path d="M16.7551 31.8774H15.3547V30.4458H16.76L16.7551 31.8774Z" fill="#DB1D1E"/>
<path d="M22.6743 30.426H24.0649V31.8638H22.6743V30.426Z" fill="#DB1D1E"/>
<path d="M7.99497 31.9096C7.99274 32.2033 7.93327 32.4936 7.81997 32.7639C7.70668 33.0342 7.54179 33.2792 7.33479 33.4847C7.12778 33.6903 6.88274 33.8523 6.61375 33.9616C6.34476 34.0708 6.05711 34.1251 5.76735 34.1214C5.19123 34.1103 4.64239 33.8706 4.23884 33.4538C3.83529 33.0369 3.60927 32.4762 3.60938 31.8923C3.61161 31.5986 3.67108 31.3082 3.78437 31.0379C3.89767 30.7676 4.06256 30.5227 4.26956 30.3171C4.47656 30.1116 4.7216 29.9495 4.99059 29.8403C5.25959 29.731 5.54723 29.6767 5.837 29.6805C6.41312 29.6915 6.96196 29.9312 7.3655 30.3481C7.76905 30.7649 7.99507 31.3256 7.99497 31.9096ZM6.52863 31.8923C6.52578 31.6988 6.44861 31.5142 6.31353 31.3775C6.17844 31.2408 5.99609 31.1629 5.80523 31.1604C5.61432 31.1603 5.43092 31.2357 5.294 31.3705C5.15709 31.5053 5.07746 31.689 5.07205 31.8824C5.0704 31.982 5.08855 32.081 5.12543 32.1734C5.1623 32.2658 5.21714 32.3498 5.28669 32.4202C5.35624 32.4907 5.43907 32.5463 5.53025 32.5837C5.62144 32.6211 5.71911 32.6394 5.81745 32.6378C6.0087 32.6323 6.19025 32.5512 6.32336 32.4119C6.45646 32.2727 6.53056 32.0862 6.52985 31.8923H6.52863Z" fill="#DB1D1E"/>
<path d="M33.6242 29.6755C34.0589 29.6755 34.4838 29.8061 34.8453 30.0506C35.2068 30.2952 35.4888 30.6428 35.6555 31.0496C35.8222 31.4564 35.8663 31.9042 35.7821 32.3363C35.6979 32.7685 35.4893 33.1657 35.1825 33.4778C34.8758 33.7899 34.4846 34.0029 34.0585 34.0898C33.6324 34.1768 33.1905 34.1339 32.7884 33.9665C32.3864 33.7992 32.0422 33.5148 31.7995 33.1494C31.5568 32.7839 31.4264 32.3538 31.4247 31.9133C31.4236 31.6199 31.4796 31.3291 31.5897 31.0576C31.6997 30.7862 31.8615 30.5394 32.0659 30.3315C32.2702 30.1236 32.5131 29.9586 32.7805 29.846C33.0479 29.7335 33.3347 29.6755 33.6242 29.6755ZM33.6157 31.1616C33.4698 31.1604 33.327 31.2033 33.2053 31.2848C33.0837 31.3663 32.9888 31.4827 32.9328 31.6192C32.8767 31.7557 32.8621 31.906 32.8908 32.0509C32.9196 32.1958 32.9902 32.3287 33.0939 32.4327C33.1975 32.5367 33.3294 32.6069 33.4727 32.6346C33.6159 32.6622 33.7641 32.6459 33.8981 32.5877C34.0322 32.5296 34.1461 32.4322 34.2253 32.3081C34.3045 32.184 34.3454 32.0388 34.3427 31.891C34.3396 31.6972 34.2617 31.5123 34.1259 31.3758C33.9901 31.2393 33.807 31.162 33.6157 31.1604V31.1616Z" fill="#DB1D1E"/>
</g>
<defs>
<clipPath id="clip0_490_643">
<rect width="43.9085" height="46" fill="white" transform="translate(0.68396)"/>
</clipPath>
</defs>
</svg>
