<svg width="64" height="65" viewBox="0 0 64 65" fill="none" xmlns="http://www.w3.org/2000/svg">
<g clip-path="url(#clip0_490_612)">
<path d="M31.5571 65C31.3116 64.8875 31.108 64.6978 30.9763 64.4588C30.8445 64.2198 30.7915 63.944 30.825 63.672C30.825 62.414 30.825 61.1792 30.825 59.9211C30.825 59.1057 31.191 58.6398 31.8087 58.6398C32.4264 58.6398 32.7925 59.1057 32.7925 59.9211C32.7925 61.1792 32.7925 62.414 32.7925 63.672C32.8171 63.9457 32.7576 64.2205 32.6224 64.4583C32.4872 64.6962 32.2828 64.8854 32.0375 65H31.5571Z" fill="#DB1D1E"/>
<path d="M20.6443 14.7007L25.2199 21.9928L29.7955 14.7706H29.3151C29.0989 14.7203 28.9088 14.5899 28.7819 14.4047C28.6551 14.2195 28.6004 13.9928 28.6287 13.7688C28.6269 13.5529 28.7026 13.3437 28.8417 13.1806C28.9807 13.0176 29.1735 12.9119 29.3837 12.8835C29.6043 12.8596 29.8267 12.8596 30.0472 12.8835H43.0877C43.7445 12.8501 44.3976 13.0021 44.9749 13.3228C45.5522 13.6434 46.0313 14.1203 46.3593 14.7007C48.3497 17.8925 50.4087 21.0376 52.4448 24.2061C52.9635 24.8277 53.2288 25.6279 53.1863 26.4424C53.1437 27.2569 52.7966 28.024 52.2161 28.586C50.6604 30.5663 49.0818 32.5233 47.4803 34.5036C47.346 34.6834 47.1926 34.8475 47.0227 34.9928C46.8591 35.1418 46.6474 35.2242 46.4279 35.2242C46.2084 35.2242 45.9966 35.1418 45.8331 34.9928C45.6489 34.8607 45.5191 34.6641 45.4684 34.4405C45.4177 34.217 45.4498 33.9823 45.5585 33.7814C45.6672 33.5807 45.7976 33.3931 45.9475 33.2222L50.5231 27.4677H49.9969H40.8457C40.5025 27.4677 40.2966 27.4677 40.1593 27.9104C38.0316 34.5968 35.8582 41.2832 33.7077 47.9695C33.6654 48.0821 33.6654 48.2065 33.7077 48.319C33.8449 48.1559 34.0051 47.9928 34.1195 47.8297C36.9335 44.3351 39.7475 40.8405 42.5844 37.3226C42.7028 37.151 42.841 36.9945 42.9962 36.8566C43.1621 36.7224 43.3677 36.6494 43.5796 36.6494C43.7914 36.6494 43.9971 36.7224 44.163 36.8566C44.3454 36.9846 44.4746 37.1771 44.5253 37.3968C44.5761 37.6164 44.5448 37.8474 44.4375 38.0448C44.3459 38.2626 44.2138 38.4604 44.0486 38.6272L34.3254 50.905C34.0456 51.3183 33.6714 51.6561 33.2351 51.8895C32.7987 52.1229 32.3132 52.2449 31.8202 52.2449C31.3273 52.2449 30.8418 52.1229 30.4054 51.8895C29.969 51.6561 29.5949 51.3183 29.3151 50.905L11.2185 28.353C10.6542 27.801 10.3167 27.0513 10.2742 26.2556C10.2317 25.4599 10.4875 24.6774 10.9897 24.0663C13.0488 20.8513 15.1078 17.6595 17.1439 14.4444C17.4649 13.8872 17.9277 13.4285 18.4834 13.1169C19.0391 12.8052 19.6671 12.6522 20.3011 12.6738H25.2428C25.3645 12.6622 25.4871 12.6622 25.6088 12.6738C26.2723 12.6738 26.6841 13.1398 26.6612 13.6989C26.6528 13.838 26.6167 13.9738 26.555 14.0981C26.4933 14.2224 26.4074 14.3327 26.3025 14.4221C26.1976 14.5115 26.0759 14.5781 25.9448 14.618C25.8137 14.6579 25.6761 14.6702 25.5402 14.6541C24.1675 14.6541 22.7719 14.6541 21.3764 14.6541L20.6443 14.7007ZM38.0545 25.2545L31.8088 15.5161L25.5631 25.2778H29.9786C30.1145 25.2683 30.2509 25.287 30.3796 25.3328C30.5082 25.3786 30.6263 25.4505 30.7269 25.5441C30.8274 25.6378 30.9082 25.7513 30.9644 25.8777C31.0206 26.0041 31.051 26.1408 31.0538 26.2796C31.0317 26.5457 30.9148 26.7944 30.7252 26.9789C30.5356 27.1634 30.2864 27.2709 30.0243 27.2814C29.7498 27.2814 29.4752 27.2814 29.2007 27.2814H25.1741L25.4029 28.0269C25.7919 29.2849 26.2265 30.543 26.5926 31.8244C26.6937 32.1185 26.6937 32.4389 26.5926 32.733C26.3882 33.0393 26.0777 33.2557 25.7232 33.3387C25.5037 33.3605 25.2841 33.2988 25.1066 33.1654C24.9292 33.0321 24.8065 32.8365 24.7623 32.6165C24.259 31.009 23.7328 29.4014 23.2295 27.7939C23.2216 27.7126 23.1969 27.6338 23.1571 27.5628C23.1174 27.4918 23.0633 27.4301 22.9986 27.3817C22.9338 27.3334 22.8598 27.2995 22.7814 27.2822C22.7029 27.2649 22.6217 27.2646 22.5432 27.2814H13.3919H12.8657L29.6811 48.2491C28.583 44.4283 27.3933 40.6774 26.1808 36.9265C25.8605 35.9014 25.9978 35.3656 26.6155 35.1559C27.2332 34.9462 27.7136 35.2724 28.0339 36.2742L31.5343 47.2473C31.5343 47.457 31.6715 47.6434 31.8088 47.9928L38.4892 27.2581H37.7113C36.7733 27.2581 35.8125 27.2581 34.8516 27.2581C34.4611 27.1731 34.1126 26.9503 33.8678 26.629C33.7917 26.4902 33.7517 26.3338 33.7517 26.1747C33.7517 26.0157 33.7917 25.8593 33.8678 25.7204C34.124 25.4612 34.4677 25.3112 34.8287 25.3011C35.9497 25.2778 36.9564 25.2778 38.0545 25.2778V25.2545ZM12.5683 25.2545H13.369C16.2974 25.2545 19.2258 25.2545 22.1542 25.2545C22.4945 25.305 22.8418 25.2443 23.1461 25.081C23.4503 24.9177 23.6958 24.6603 23.8472 24.3459C23.9588 24.1903 24.0189 24.0027 24.0189 23.81C24.0189 23.6174 23.9588 23.4298 23.8472 23.2742C22.2686 20.9444 20.7358 18.4516 19.2716 16.052L18.8827 15.5161L12.5683 25.2545ZM44.8264 15.5394C44.6767 15.7323 44.5392 15.9346 44.4146 16.1452C42.8818 18.4749 41.3718 20.8047 39.839 23.1344C39.6789 23.3907 39.2899 23.6469 39.6102 23.9964C39.9305 24.3459 40.0449 25.1846 40.8914 25.1846C44.0486 25.1846 47.2058 25.1846 50.3629 25.1846H50.9806L44.8264 15.5394ZM38.3062 22.0161L42.8818 14.7473H33.5704L38.3062 22.0161Z" fill="#DB1D1E"/>
<path d="M32.7926 3.19176C32.7926 3.84409 32.7926 4.49642 32.7926 5.14875C32.7926 5.80108 32.4037 6.31363 31.8317 6.31363C31.2598 6.31363 30.848 5.89427 30.8251 5.19534V1.11828C30.8251 0.419356 31.2598 -0.0232864 31.8317 1.10423e-05C32.4037 0.0233085 32.7697 0.442663 32.7926 1.16489C32.8155 1.88711 32.7926 2.51613 32.7926 3.19176Z" fill="#DB1D1E"/>
<path d="M3.5543 33.5018H1.5639C0.900439 33.5018 0.488647 33.1057 0.488647 32.5233C0.488647 31.9409 0.877565 31.5215 1.58679 31.5215C2.88321 31.5215 4.18726 31.5215 5.49894 31.5215C6.20816 31.5215 6.61996 31.9176 6.61996 32.5233C6.61996 33.129 6.20816 33.5018 5.47606 33.5018H3.5543Z" fill="#DB1D1E"/>
<path d="M60.1549 33.5018H58.2331C57.5238 33.5018 57.1121 33.1057 57.1121 32.5C57.1121 31.8943 57.5467 31.5215 58.256 31.5215C59.5371 31.5215 60.8183 31.5215 62.1224 31.5215C62.8316 31.5215 63.2434 31.8943 63.2434 32.5C63.2434 33.1057 62.8545 33.5018 62.0995 33.5018H60.1549Z" fill="#DB1D1E"/>
<path d="M10.2119 9.08603C10.5158 9.24864 10.8065 9.43561 11.0813 9.64516C11.9964 10.5538 12.8886 11.509 13.7809 12.4409C14.33 13 14.3528 13.5591 13.9182 14.0018C13.8163 14.1023 13.6943 14.1792 13.5605 14.2273C13.4267 14.2753 13.2843 14.2933 13.1431 14.28C13.0018 14.2667 12.8651 14.2225 12.7422 14.1503C12.6193 14.0782 12.5131 13.9798 12.4311 13.862C11.4931 12.9068 10.5322 11.9516 9.63996 10.9498C9.52853 10.7849 9.45084 10.5989 9.41153 10.4027C9.37223 10.2066 9.3721 10.0044 9.41116 9.80825C9.4798 9.52868 9.9145 9.3423 10.2119 9.08603Z" fill="#DB1D1E"/>
<path d="M54.4353 10.1111C54.3283 10.4167 54.1821 10.7066 54.0006 10.9731L51.1637 13.9086C51.0716 14.0095 50.9601 14.09 50.8361 14.145C50.7121 14.2001 50.5783 14.2285 50.443 14.2285C50.3077 14.2285 50.174 14.2001 50.05 14.145C49.926 14.09 49.8144 14.0095 49.7223 13.9086C49.6167 13.819 49.5317 13.7068 49.4733 13.5799C49.415 13.4531 49.3848 13.3148 49.3848 13.1747C49.3848 13.0347 49.415 12.8964 49.4733 12.7695C49.5317 12.6427 49.6167 12.5305 49.7223 12.4409C50.6603 11.4391 51.6212 10.4373 52.605 9.45879C52.7357 9.29221 52.9211 9.17928 53.1271 9.14076C53.333 9.10224 53.5457 9.14073 53.726 9.24912C54.0113 9.49073 54.2516 9.78272 54.4353 10.1111Z" fill="#DB1D1E"/>
<path d="M14.3299 51.604C14.1911 51.92 14.0143 52.2174 13.8037 52.4892C12.9115 53.4677 11.9963 54.3996 11.0583 55.3315C10.974 55.4462 10.8669 55.5416 10.7441 55.6116C10.6213 55.6815 10.4854 55.7244 10.3453 55.7376C10.2052 55.7508 10.0639 55.7339 9.93054 55.6881C9.79722 55.6422 9.67483 55.5684 9.57126 55.4713C9.47131 55.3692 9.39421 55.2463 9.3452 55.111C9.2962 54.9757 9.27646 54.8312 9.28732 54.6875C9.29818 54.5437 9.3394 54.404 9.40814 54.2779C9.47689 54.1519 9.57155 54.0424 9.68565 53.957C10.6008 52.9785 11.5159 52 12.4997 51.0914C12.6547 50.9718 12.8319 50.8853 13.0207 50.8372C13.2094 50.7892 13.4057 50.7806 13.5978 50.8118C13.8723 50.905 14.0782 51.3244 14.3299 51.604Z" fill="#DB1D1E"/>
<path d="M54.4352 54.8656C54.2292 55.1219 54.0462 55.4946 53.7946 55.6111C53.6397 55.6811 53.4721 55.7173 53.3027 55.7173C53.1332 55.7173 52.9657 55.6811 52.8108 55.6111C51.7126 54.5394 50.6602 53.4444 49.6307 52.3262C49.5453 52.2372 49.4798 52.1304 49.4388 52.0131C49.3978 51.8959 49.3821 51.771 49.393 51.647C49.4039 51.5231 49.441 51.4029 49.5017 51.295C49.5625 51.187 49.6456 51.0937 49.7451 51.0215C49.8263 50.9348 49.9239 50.8658 50.0321 50.8186C50.1402 50.7715 50.2566 50.7472 50.3743 50.7472C50.4919 50.7472 50.6083 50.7715 50.7165 50.8186C50.8246 50.8658 50.9222 50.9348 51.0034 51.0215C52.0558 52.0466 53.0853 53.1416 54.092 54.2133C54.2362 54.413 54.3518 54.6326 54.4352 54.8656Z" fill="#DB1D1E"/>
</g>
<defs>
<clipPath id="clip0_490_612">
<rect width="62.869" height="65" fill="white" transform="translate(0.374268)"/>
</clipPath>
</defs>
</svg>
