<svg width="40" height="50" viewBox="0 0 40 50" fill="none" xmlns="http://www.w3.org/2000/svg">
<path d="M39.8223 19.2453C39.8223 21.6835 39.7691 24.1232 39.8327 26.56C39.9715 31.8184 38.1913 36.3721 34.8555 40.3455C31.3318 44.5874 26.6746 47.7348 21.4295 49.419C20.7543 49.6645 20.0155 49.6708 19.3362 49.4367C12.1859 46.9822 6.54101 42.6846 2.9378 35.9206C1.5299 33.2707 0.879873 30.4046 0.88135 27.3949C0.88135 21.6322 0.88135 15.8684 0.88135 10.1037C0.88135 9.15627 1.14875 8.89719 2.08981 8.87351C7.07875 8.74471 11.6673 7.36497 15.7448 4.43228C17.2207 3.38105 18.4958 2.07224 19.509 0.568408C20.0024 -0.171796 20.6717 -0.189563 21.1518 0.518073C23.2925 3.67875 26.3136 5.68026 29.772 7.08961C32.6124 8.24454 35.6447 8.85227 38.7099 8.88091C39.5076 8.89127 39.812 9.19624 39.8135 9.9927C39.8253 13.0759 39.8282 16.1601 39.8223 19.2453ZM38.0495 10.684C31.1149 10.1437 25.0195 7.88459 20.3304 2.48554C18.1853 5.15028 15.4552 7.01855 12.3706 8.38793C9.30884 9.73625 6.02346 10.5018 2.68222 10.6456C2.67335 10.8173 2.66006 10.9416 2.66006 11.069C2.66006 16.5924 2.64972 22.1158 2.66006 27.6392C2.6536 30.3312 3.33838 32.9797 4.64854 35.3299C8.08482 41.5151 13.3648 45.4574 19.9537 47.7461C20.2507 47.8267 20.5651 47.8143 20.8549 47.7106C25.9531 46.0259 30.2108 43.0828 33.6412 38.9614C36.6165 35.3891 38.147 31.2973 38.0732 26.5836C37.9875 21.5044 38.054 16.4236 38.054 11.3443L38.0495 10.684Z" fill="#DB1D1E"/>
<path d="M33.6262 24.8501C33.6239 27.4817 32.8425 30.0535 31.381 32.2399C29.9195 34.4264 27.8435 36.1292 25.4159 37.1329C22.9882 38.1365 20.318 38.396 17.7432 37.8783C15.1683 37.3607 12.8046 36.0892 10.9512 34.2249C9.09772 32.3605 7.83786 29.9871 7.33105 27.4049C6.82424 24.8228 7.09325 22.148 8.10404 19.7191C9.11483 17.2902 10.822 15.2164 13.0094 13.7602C15.1968 12.3039 17.7662 11.5306 20.3923 11.5383C27.6829 11.5368 33.6262 17.5176 33.6262 24.8501ZM20.3657 13.3133C14.0265 13.3266 8.84252 18.4858 8.85434 24.7746C8.84587 26.302 9.14036 27.8159 9.72071 29.2283C10.301 30.6407 11.1557 31.9235 12.2349 33.0021C13.3142 34.0807 14.5966 34.9337 16.0076 35.5114C17.4186 36.0892 18.9301 36.3802 20.4543 36.3677C26.736 36.3469 31.8638 31.1492 31.8534 24.7998C31.8534 18.4888 26.6591 13.2999 20.3657 13.3133Z" fill="#DB1D1E"/>
<path d="M15.3474 28.7747C15.4718 28.5707 15.611 28.3763 15.764 28.1929C18.7432 25.1995 21.726 22.209 24.7121 19.2216C24.8591 19.0551 25.0246 18.906 25.2056 18.7774C25.3711 18.68 25.5641 18.64 25.7547 18.6636C25.9452 18.6872 26.1227 18.773 26.2596 18.9079C26.3966 19.0428 26.4853 19.2191 26.5122 19.4096C26.539 19.6001 26.5024 19.7942 26.4081 19.9618C26.2953 20.1303 26.1618 20.284 26.0107 20.4192C22.6513 23.7886 19.2908 27.1576 15.9294 30.526C15.1479 31.3076 14.591 31.2203 14.099 30.2373C13.5864 29.2158 13.0738 28.1943 12.57 27.1684C12.2657 26.5496 12.4001 26.0477 12.9157 25.8079C13.4002 25.5829 13.8493 25.7887 14.1552 26.3882C14.5304 27.1329 14.8953 27.8731 15.3474 28.7747Z" fill="#DB1D1E"/>
</svg>
