<svg width="63" height="40" viewBox="0 0 63 40" fill="none" xmlns="http://www.w3.org/2000/svg">
<path d="M0.0479567 24.6766C0.375814 24.1786 0.857765 24.0674 1.42332 24.0707C3.83635 24.0889 6.24939 24.079 8.66406 24.079H9.38043C9.28863 23.7038 9.18371 23.3934 9.13781 23.0746C8.94602 21.7465 9.28043 20.5712 10.2296 19.605C11.1787 18.6388 12.1082 17.6992 13.0492 16.7496C14.2655 15.5194 15.7048 15.121 17.3113 15.7535C18.9178 16.386 19.7096 17.6709 19.7916 19.4058C19.7916 19.4854 19.8079 19.5718 19.8211 19.6863C20.9686 19.6764 22.0013 20.0183 22.8242 20.8484C23.6472 21.6785 23.9717 22.7243 23.9816 23.8715C26.8241 24.2649 28.0093 25.4619 28.1634 28.1048C28.5109 28.1529 28.8732 28.1778 29.224 28.2525C30.0951 28.4246 30.8795 28.8992 31.4418 29.5945C32.0042 30.2898 32.3092 31.1621 32.3042 32.0608C32.3042 32.4891 32.3977 32.8029 32.7223 33.0851C33.0944 33.4072 33.4124 33.7923 33.7747 34.1277C34.6451 34.9361 35.85 34.9212 36.6418 34.1077C36.8316 33.9175 36.9818 33.6907 37.0837 33.4407C37.1856 33.1908 37.237 32.9227 37.2351 32.6523C37.2331 32.3818 37.1777 32.1146 37.0721 31.8662C36.9666 31.6178 36.813 31.3932 36.6205 31.2059C35.1599 29.6968 33.6698 28.2177 32.1944 26.7235C32.0268 26.572 31.8786 26.3996 31.7534 26.2106C31.6516 26.031 31.6126 25.8219 31.6427 25.6171C31.6728 25.4123 31.7703 25.2238 31.9193 25.0821C32.0684 24.9403 32.2603 24.8537 32.464 24.8361C32.6678 24.8186 32.8714 24.8712 33.0419 24.9854C33.2048 25.1102 33.3558 25.2503 33.4927 25.4038C35.2151 27.1458 36.9363 28.8883 38.6565 30.6315C39.2778 31.2606 40.0138 31.4615 40.8466 31.1776C41.6351 30.9037 42.076 30.3094 42.1793 29.4777C42.2678 28.7705 41.999 28.1911 41.5056 27.6931C39.781 25.9544 38.0603 24.2118 36.3434 22.4653C36.1758 22.3139 36.0271 22.1422 35.9008 21.954C35.7983 21.775 35.7585 21.5661 35.7879 21.3613C35.8173 21.1565 35.9141 20.9678 36.0628 20.8257C36.2114 20.6837 36.403 20.5966 36.6066 20.5788C36.8103 20.5609 37.0139 20.6132 37.1844 20.7272C37.3635 20.8623 37.5284 21.0158 37.6762 21.1854C40.0056 23.5411 42.3236 25.9101 44.6743 28.2459C45.0322 28.6057 45.4735 28.8688 45.9579 29.0112C46.3704 29.1114 46.8042 29.069 47.1903 28.891C47.5764 28.7129 47.8927 28.4093 48.089 28.0284C48.3087 27.649 48.3982 27.2067 48.3437 26.7703C48.2891 26.334 48.0935 25.9282 47.7873 25.6162C47.1857 24.9671 46.5513 24.3496 45.93 23.7187C44.5858 22.3574 43.2367 21.0011 41.9006 19.6282C41.4548 19.1717 41.4449 18.6321 41.8252 18.2487C42.2055 17.8652 42.7236 17.8801 43.1891 18.3051C43.3104 18.4147 43.4219 18.5375 43.5367 18.6537C45.0841 20.2209 46.6087 21.8079 48.1971 23.3352C48.6157 23.7147 49.1338 23.9632 49.6889 24.0508C50.5331 24.1769 51.1905 23.7187 51.5675 22.9401C51.7627 22.582 51.8389 22.1698 51.7849 21.7644C51.7309 21.359 51.5495 20.982 51.2675 20.689C50.6938 20.0416 50.0594 19.4522 49.4643 18.8297C48.9463 18.2935 48.8955 17.7838 49.3004 17.3605C49.7053 16.9372 50.2463 17.0019 50.7544 17.4999C51.0921 17.832 51.4102 18.1889 51.756 18.506C52.9035 19.5352 53.7412 20.7106 53.6347 22.4222H54.351C56.8247 22.4222 59.2984 22.4222 61.7737 22.4222C62.5163 22.4222 62.9852 22.9053 62.8393 23.5145C62.6934 24.1238 62.236 24.2882 61.6705 24.2848C59.7279 24.2848 57.7853 24.2848 55.8428 24.2848C55.433 24.2848 55.0231 24.3064 54.615 24.2848C53.6675 24.2234 52.838 24.2948 52.0937 25.1049C51.6364 25.603 50.8249 25.769 50.1463 26.101C50.8561 29.9292 46.8906 32.1837 43.9596 30.1783C43.6022 31.3669 42.9186 32.2783 41.7974 32.8112C40.9466 33.2163 40.063 33.2378 39.104 33.0469C38.7303 34.8731 37.7549 36.153 35.8566 36.5249C33.9583 36.8967 32.6796 35.8226 31.5141 34.4829C31.3092 34.7037 31.1535 34.898 30.9715 35.0623C30.5355 35.4558 30.024 35.4524 29.6601 35.0623C29.2962 34.6722 29.3027 34.2074 29.6601 33.7724C29.7765 33.6296 29.9207 33.5084 30.0322 33.3607C30.3422 32.9688 30.499 32.475 30.4727 31.9735C30.4464 31.472 30.2388 30.9979 29.8896 30.6414C29.1503 29.8811 27.9503 29.7732 27.1667 30.507C26.0422 31.5606 24.958 32.6579 23.9144 33.799C23.2308 34.5444 23.3078 35.7247 23.975 36.4684C24.3021 36.8302 24.7456 37.0622 25.2261 37.1231C25.7067 37.1839 26.193 37.0695 26.5979 36.8005C26.6995 36.7341 26.7913 36.6477 26.8897 36.5763C27.3585 36.2327 27.8864 36.2609 28.2109 36.6427C28.5355 37.0246 28.4831 37.6056 28.047 38.0223C26.4897 39.5015 23.839 39.284 22.4734 37.5625C21.9325 36.8851 21.7784 36.4203 21.5636 34.7934C20.4342 34.8183 19.408 34.4879 18.5834 33.6562C17.7588 32.8245 17.3867 31.8002 17.4359 30.5667C16.249 30.58 15.2212 30.2563 14.3967 29.4246C13.5721 28.5928 13.2032 27.5669 13.2492 26.2803C11.8967 26.1707 10.5902 25.9964 9.28043 25.9732C6.62314 25.925 3.96422 25.9483 1.30529 25.9732C0.743015 25.9732 0.302046 25.842 0.0332031 25.3091L0.0479567 24.6766ZM12.9885 24.5388C13.3754 24.3728 13.8475 24.3064 14.136 24.0408C15.2999 22.9401 16.4474 21.8162 17.5179 20.6243C18.2146 19.8507 18.067 18.6454 17.3293 17.9233C16.9713 17.5587 16.4885 17.3476 15.981 17.3337C15.4735 17.3198 14.9802 17.5041 14.6032 17.8486C13.5016 18.8978 12.4328 19.9807 11.3968 21.0974C10.8132 21.7299 10.7656 22.5318 11.1295 23.302C11.4935 24.0723 12.1131 24.4309 12.9885 24.5388ZM17.3375 28.6891C17.5424 28.6045 18.0375 28.5331 18.3375 28.2492C19.485 27.1651 20.6178 26.0512 21.6767 24.8758C22.3964 24.0773 22.2488 22.8571 21.4817 22.1283C20.7145 21.3996 19.5571 21.3414 18.8014 22.057C17.6834 23.1139 16.6009 24.2107 15.554 25.3473C14.9901 25.9616 14.9491 26.7484 15.2933 27.5055C15.6376 28.2625 16.2622 28.6493 17.3375 28.6858V28.6891ZM21.344 33.0054C21.7308 32.8394 22.2046 32.7747 22.4915 32.5074C23.6554 31.4067 24.8029 30.2812 25.875 29.0892C26.5733 28.3123 26.4208 27.112 25.6799 26.3882C24.9389 25.6644 23.7619 25.5581 23.0029 26.277C21.8784 27.3312 20.7964 28.4351 19.7489 29.5673C19.167 30.1965 19.1178 31 19.485 31.772C19.8522 32.5439 20.4686 32.8959 21.344 32.9955V33.0054Z" fill="#DB1D1E"/>
<path d="M43.9955 10.6471L47.42 14.1067C47.5642 14.2545 47.7167 14.3939 47.8462 14.5533C48.1921 14.98 48.1822 15.4863 47.8331 15.8432C47.7511 15.9294 47.653 15.9982 47.5446 16.0458C47.4361 16.0933 47.3194 16.1186 47.2013 16.1201C47.0831 16.1217 46.9658 16.0994 46.8562 16.0548C46.7466 16.0101 46.6468 15.9438 46.5626 15.8598C46.0479 15.3867 45.5676 14.877 45.0774 14.3773C44.3299 13.6137 43.5873 12.8434 42.7824 12.0117C42.5333 12.2574 42.3169 12.4632 42.1103 12.6757C40.6645 14.1698 38.9186 14.9385 36.8384 14.892C36.1433 14.8754 35.4466 14.892 34.7516 14.892C33.2762 14.892 31.9533 14.3939 30.6681 13.4759C29.6534 14.5251 28.6666 15.5975 27.624 16.6152C26.8154 17.3859 25.7502 17.8206 24.6399 17.8331C23.5295 17.8456 22.4551 17.435 21.6297 16.6827C20.8044 15.9305 20.2884 14.8915 20.1841 13.7719C20.0798 12.6524 20.3949 11.534 21.0668 10.6388C21.5575 10.0555 22.0848 9.50483 22.6455 8.99025C22.7304 8.90034 22.8326 8.82899 22.9458 8.7806C23.059 8.73222 23.1808 8.70781 23.3037 8.7089C23.4265 8.70999 23.5479 8.73655 23.6602 8.78693C23.7726 8.83732 23.8735 8.91047 23.9569 9.00187C24.3012 9.37374 24.3126 9.86514 23.9372 10.2868C23.5618 10.7085 23.1274 11.1069 22.7324 11.5269C21.6865 12.6392 21.6734 14.2213 22.6897 15.2622C23.7061 16.3031 25.3241 16.2948 26.4224 15.2024C27.56 14.0702 28.6797 12.9198 29.8108 11.7809C30.4485 11.1384 30.8288 11.1169 31.4878 11.7162C32.3999 12.5689 33.5972 13.0398 34.8385 13.0343C35.5122 13.0343 36.1876 13.021 36.8613 13.0343C37.5891 13.0622 38.3142 12.9313 38.9876 12.6506C39.661 12.3699 40.267 11.946 40.7645 11.4074C41.7235 10.4113 42.6972 9.44181 43.6693 8.464C44.2562 7.87133 44.784 7.79995 45.2086 8.24154C45.6331 8.68313 45.5364 9.22101 44.9496 9.80039C44.6594 10.0843 44.3398 10.3433 43.9955 10.6471Z" fill="#DB1D1E"/>
<path d="M55.5918 6.30733C53.5886 6.30733 51.5854 6.29571 49.5822 6.31729C49.3491 6.32741 49.1167 6.28518 48.9015 6.19362C48.6864 6.10206 48.494 5.96345 48.338 5.78771C47.5036 4.89955 46.6266 4.0695 45.7889 3.18798C45.3982 2.76121 44.9232 2.42242 44.3948 2.19362C43.8664 1.96482 43.2964 1.85111 42.7218 1.85989H34.0106C33.4369 1.85404 32.8683 1.96909 32.3408 2.19772C31.8134 2.42636 31.3387 2.76358 30.9468 3.18798C29.5846 4.59077 28.201 5.97199 26.8273 7.36316C26.4732 7.7234 26.0699 7.86119 25.6109 7.58395C25.4368 7.48902 25.3015 7.33479 25.2289 7.14855C25.1563 6.96231 25.1511 6.75606 25.2142 6.56631C25.2866 6.35266 25.4092 6.16008 25.5716 6.00519C26.9672 4.58413 28.3688 3.16418 29.7764 1.74534C30.3231 1.18283 30.9766 0.738251 31.6976 0.438389C32.4185 0.138527 33.192 -0.0104061 33.9713 0.000564905C36.9154 0.000564905 39.8596 0.000564905 42.8038 0.000564905C43.6043 -0.00608682 44.3974 0.155581 45.133 0.475342C45.8686 0.795102 46.5307 1.26599 47.0774 1.85823C47.7659 2.5754 48.4855 3.23944 49.1494 3.97487C49.4871 4.34674 49.8478 4.4563 50.3314 4.45464C54.0116 4.43638 57.6918 4.44468 61.372 4.44468C61.5359 4.44468 61.6998 4.43638 61.8638 4.44468C62.4818 4.48287 62.8736 4.85307 62.8703 5.38929C62.867 5.9255 62.4736 6.29903 61.8506 6.30235C59.7638 6.31231 57.677 6.30733 55.5918 6.30733Z" fill="#DB1D1E"/>
<path d="M6.66739 4.88789C8.42471 4.88789 10.1837 4.90449 11.9426 4.87129C12.2757 4.85413 12.5965 4.73872 12.8656 4.53927C13.4557 4.08772 13.9967 3.57143 14.5557 3.09332C15.5351 2.22024 16.7902 1.72987 18.0949 1.71046C20.4456 1.67892 22.798 1.69386 25.1438 1.7005C25.816 1.7005 26.2061 2.06738 26.2045 2.63845C26.2028 3.20953 25.8209 3.54487 25.1356 3.55981C24.993 3.55981 24.8504 3.55981 24.7078 3.55981C22.6423 3.55981 20.5768 3.56977 18.5113 3.55981C17.4373 3.52826 16.393 3.91847 15.5966 4.64884C15.0027 5.21837 14.376 5.75165 13.7196 6.24585C13.337 6.53105 12.8822 6.70031 12.4082 6.73392C8.76896 6.77211 5.1281 6.7555 1.48887 6.75384C1.32468 6.75988 1.16027 6.75322 0.997084 6.73392C0.4512 6.64926 0.139734 6.28071 0.162684 5.76276C0.185634 5.24481 0.523328 4.91445 1.09052 4.89785C1.82656 4.87793 2.56588 4.89785 3.29865 4.89785L6.66739 4.88789Z" fill="#DB1D1E"/>
</svg>
