<svg width="34" height="17" viewBox="0 0 34 17" fill="none" xmlns="http://www.w3.org/2000/svg">
<g clip-path="url(#clip0_492_26)">
<path d="M0 8.36657C0.172183 7.82786 0.587254 7.72343 1.09299 7.72343C11.0086 7.72841 20.9246 7.72841 30.8408 7.72343H31.3399C31.1976 7.56928 31.1136 7.4748 31.0246 7.38446L25.1355 1.50922C25.0731 1.44706 25.0082 1.38656 24.9491 1.32109C24.633 0.968026 24.6231 0.531256 24.9225 0.22212C25.222 -0.0870157 25.6628 -0.079557 26.023 0.232065C26.0978 0.29671 26.1677 0.367987 26.2384 0.438434L33.5874 7.75824C34.1364 8.30524 34.1397 8.67819 33.5991 9.2169C31.1109 11.6977 28.6224 14.1774 26.1336 16.6561C25.7343 17.053 25.3076 17.1044 24.9624 16.8003C24.8219 16.6815 24.7313 16.5144 24.7087 16.3321C24.686 16.1499 24.733 15.9659 24.8402 15.8165C24.9409 15.6846 25.0522 15.561 25.1729 15.4469C27.1282 13.497 29.0843 11.5474 31.0413 9.59814C31.1244 9.51526 31.2076 9.42741 31.3499 9.27409H30.8624C20.9362 9.27409 11.01 9.27409 1.08384 9.27409C0.60389 9.27409 0.217101 9.15971 0.00831791 8.69394L0 8.36657Z" fill="#B9B9B9"/>
</g>
<defs>
<clipPath id="clip0_492_26">
<rect width="34" height="17" fill="white"/>
</clipPath>
</defs>
</svg>
