<svg width="45" height="44" viewBox="0 0 45 44" fill="none" xmlns="http://www.w3.org/2000/svg">
<ellipse cx="22.4908" cy="22" rx="22.149" ry="22" fill="#DB1D1E"/>
<path d="M25.3641 21.8573C25.3641 23.4309 24.0719 24.7144 22.4876 24.7144C20.9033 24.7144 19.6111 23.4309 19.6111 21.8573C19.6111 20.2836 20.9033 19.0001 22.4876 19.0001C24.0719 19.0001 25.3641 20.2836 25.3641 21.8573ZM26.9147 21.8573C26.9147 19.4242 24.9371 17.46 22.4876 17.46C20.0381 17.46 18.0605 19.4242 18.0605 21.8573C18.0605 24.2903 20.0381 26.2546 22.4876 26.2546C24.9371 26.2546 26.9147 24.2903 26.9147 21.8573ZM28.1282 17.2814C28.1282 16.7122 27.6675 16.2546 27.0945 16.2546C26.5214 16.2546 26.0607 16.7122 26.0607 17.2814C26.0607 17.8506 26.5214 18.3082 27.0945 18.3082C27.6675 18.3082 28.1282 17.8506 28.1282 17.2814ZM22.4876 14.826C23.7461 14.826 26.4428 14.7256 27.5776 15.172C27.9709 15.3283 28.263 15.518 28.5664 15.8193C28.8698 16.1207 29.0608 16.4109 29.2181 16.8015C29.6676 17.9287 29.5664 20.6073 29.5664 21.8573C29.5664 23.1073 29.6676 25.7859 29.2181 26.9131C29.0608 27.3037 28.8698 27.5939 28.5664 27.8952C28.263 28.1966 27.9709 28.3863 27.5776 28.5426C26.4428 28.989 23.7461 28.8885 22.4876 28.8885C21.2291 28.8885 18.5324 28.989 17.3976 28.5426C17.0043 28.3863 16.7121 28.1966 16.4088 27.8952C16.1054 27.5939 15.9144 27.3037 15.7571 26.9131C15.3076 25.7859 15.4087 23.1073 15.4087 21.8573C15.4087 20.6073 15.3076 17.9287 15.7571 16.8015C15.9144 16.4109 16.1054 16.1207 16.4088 15.8193C16.7121 15.518 17.0043 15.3283 17.3976 15.172C18.5324 14.7256 21.2291 14.826 22.4876 14.826ZM31.1171 21.8573C31.1171 20.6742 31.1283 19.5024 31.0609 18.3193C30.9935 16.9466 30.6788 15.7301 29.6676 14.7256C28.6563 13.7211 27.4316 13.4086 26.0495 13.3417C24.8584 13.2747 23.6786 13.2859 22.4876 13.2859C21.2965 13.2859 20.1167 13.2747 18.9257 13.3417C17.5436 13.4086 16.3189 13.7211 15.3076 14.7256C14.2963 15.7301 13.9817 16.9466 13.9143 18.3193C13.8469 19.5024 13.8581 20.6742 13.8581 21.8573C13.8581 23.0403 13.8469 24.2122 13.9143 25.3952C13.9817 26.768 14.2963 27.9845 15.3076 28.989C16.3189 29.9934 17.5436 30.3059 18.9257 30.3729C20.1167 30.4399 21.2965 30.4287 22.4876 30.4287C23.6786 30.4287 24.8584 30.4399 26.0495 30.3729C27.4316 30.3059 28.6563 29.9934 29.6676 28.989C30.6788 27.9845 30.9935 26.768 31.0609 25.3952C31.1283 24.2122 31.1171 23.0403 31.1171 21.8573Z" fill="#FDFDFD"/>
</svg>
