<svg width="300" height="58" viewBox="0 0 300 58" fill="none" xmlns="http://www.w3.org/2000/svg">
<path d="M76.5346 26.4318L60.1393 10.7611L61.1683 11.1647L61.2369 25.6247H57.7383V3.96826H57.9441L74.065 19.5717L73.3104 19.3699L73.2419 4.70808H76.6718V26.4318H76.5346Z" fill="#474747"/>
<path d="M87.099 15.1999C87.099 13.7876 87.3734 12.3752 87.9222 11.0973C88.471 9.81945 89.2942 8.67609 90.2546 7.66725C91.2836 6.65841 92.3812 5.91859 93.7532 5.31329C95.0566 4.77524 96.4972 4.43896 98.0064 4.43896C99.5156 4.43896 100.888 4.70798 102.191 5.31329C103.494 5.85134 104.661 6.65841 105.69 7.66725C106.719 8.67609 107.473 9.81945 108.091 11.0973C108.639 12.3752 108.914 13.7876 108.914 15.1999C108.914 16.6796 108.639 18.0919 108.091 19.3698C107.542 20.6477 106.719 21.791 105.69 22.7999C104.661 23.8087 103.494 24.5485 102.191 25.0866C100.888 25.6246 99.447 25.8937 97.9378 25.8937C96.4286 25.8937 94.988 25.6246 93.6846 25.0866C92.3812 24.5485 91.215 23.8087 90.186 22.7999C89.157 21.8583 88.4024 20.7149 87.8536 19.3698C87.3734 18.0919 87.099 16.6796 87.099 15.1999ZM90.5976 15.1999C90.5976 16.276 90.8034 17.2176 91.1464 18.1592C91.558 19.0335 92.0382 19.8406 92.7242 20.5132C93.4102 21.1857 94.2334 21.7238 95.1252 22.1273C96.017 22.5309 96.9774 22.7326 98.075 22.7326C99.104 22.7326 100.064 22.5309 100.956 22.1273C101.848 21.7238 102.603 21.1857 103.289 20.5132C103.975 19.8406 104.455 19.0335 104.866 18.1592C105.278 17.2849 105.415 16.276 105.415 15.2672C105.415 14.1911 105.209 13.2495 104.798 12.3079C104.386 11.4336 103.906 10.6265 103.22 9.8867C102.534 9.21413 101.779 8.67609 100.888 8.27255C99.9958 7.86902 99.0354 7.66725 98.0064 7.66725C96.9774 7.66725 96.017 7.86902 95.1252 8.27255C94.2334 8.67609 93.4102 9.21413 92.7928 9.8867C92.1068 10.5593 91.6266 11.3663 91.215 12.3079C90.8034 13.1823 90.5976 14.1238 90.5976 15.1999Z" fill="#474747"/>
<path d="M115.98 4.77527H119.958L125.309 19.6389L124.623 19.4371L128.739 9.14692L130.317 13.7203L124.486 26.6335L115.98 4.77527ZM126.407 4.77527H129.837L135.736 19.3026L135.05 19.1681L139.921 4.70801H143.625L135.256 26.499L126.407 4.77527Z" fill="#474747"/>
<path d="M148.427 25.6248L157.894 3.7666H158.1L167.567 25.6248H163.656L156.934 9.01257L159.403 7.39843L151.789 25.5576H148.427V25.6248ZM154.395 17.8904H161.667L162.833 20.7151H153.298L154.395 17.8904Z" fill="#474747"/>
<path d="M177.102 25.6249V3.90112L188.627 19.9081L187.186 19.5718L198.642 3.90112H198.711V25.6249H195.281V11.5011L195.487 13.1825L187.735 23.9435H187.666L179.777 13.1825L180.395 11.6356V25.6249H177.102Z" fill="#474747"/>
<path d="M210.442 4.70801H224.642V7.93629H213.872V13.5186H223.475V16.7469H213.872V22.4636H225.053V25.6919H210.442V4.70801Z" fill="#474747"/>
<path d="M241.517 4.70801C243.712 4.70801 245.427 5.11154 246.662 5.98587C247.897 6.8602 248.583 8.20532 248.583 9.95398C248.583 11.1646 248.309 12.1734 247.76 12.9805C247.211 13.7876 246.388 14.4601 245.427 14.9309C244.467 15.4017 243.301 15.6035 241.929 15.6035L241.449 13.8548C243.026 13.8548 244.398 14.1239 245.633 14.5946C246.868 15.0654 247.828 15.738 248.583 16.6123C249.338 17.4867 249.681 18.4955 249.681 19.7061C249.681 20.7822 249.475 21.7238 249.063 22.4636C248.652 23.2034 248.103 23.8087 247.417 24.3468C246.731 24.8176 245.976 25.1539 245.084 25.4229C244.193 25.6247 243.301 25.7592 242.409 25.7592H235.686V4.77527H241.517V4.70801ZM242.066 13.5858C243.095 13.5858 243.85 13.3168 244.33 12.7115C244.81 12.1062 245.016 11.4336 245.016 10.6265C245.016 9.68495 244.741 9.01239 244.124 8.54159C243.507 8.0708 242.683 7.86903 241.654 7.86903H239.116V13.5858H242.066V13.5858ZM242.203 22.5309C242.958 22.5309 243.575 22.3964 244.193 22.1946C244.81 21.9928 245.222 21.6566 245.633 21.253C245.976 20.8495 246.182 20.3114 246.182 19.6389C246.182 18.899 245.976 18.361 245.565 17.9575C245.153 17.5539 244.604 17.2849 243.987 17.0831C243.369 16.8814 242.683 16.8141 241.997 16.8141H239.116V22.5309H242.203V22.5309Z" fill="#474747"/>
<path d="M260.039 4.70801H274.239V7.93629H263.469V13.5186H273.073V16.7469H263.469V22.4636H274.651V25.6919H260.039V4.70801Z" fill="#474747"/>
<path d="M285.284 4.70801H288.714V22.4636H299.278V25.6919H285.284V4.70801Z" fill="#474747"/>
<path d="M58.9731 50.5764H57.8069V39.6809H64.1181V40.6898H58.9045V50.5764H58.9731Z" fill="#474747"/>
<path d="M73.4477 49.6349H79.4159V50.6438H72.3501V39.7483H79.2787V40.7571H73.5163V44.5235H78.9357V45.5323H73.5163V49.6349H73.4477Z" fill="#474747"/>
<path d="M98.8983 45.1286C98.8983 45.9357 98.7611 46.7428 98.4867 47.4153C98.2123 48.0879 97.8007 48.6932 97.2519 49.2312C96.7031 49.7693 96.0857 50.1056 95.3997 50.4419C94.7137 50.7781 93.8905 50.8454 93.0673 50.8454C92.2441 50.8454 91.4895 50.7109 90.7349 50.4419C89.9803 50.1728 89.4315 49.7693 88.8827 49.2312C88.3339 48.6932 87.9223 48.0879 87.6479 47.4153C87.3735 46.7428 87.2363 45.9357 87.2363 45.1286C87.2363 44.3216 87.3735 43.5145 87.6479 42.8419C87.9223 42.1694 88.3339 41.5641 88.8827 41.026C89.4315 40.488 90.0489 40.1517 90.7349 39.8154C91.4209 39.4791 92.2441 39.4119 93.0673 39.4119C93.8905 39.4119 94.6451 39.5464 95.3997 39.8154C96.1543 40.0844 96.7031 40.488 97.2519 41.026C97.8007 41.5641 98.1437 42.1694 98.4867 42.8419C98.8297 43.5145 98.8983 44.3216 98.8983 45.1286ZM97.7321 45.1286C97.7321 44.5233 97.5949 43.918 97.3891 43.3127C97.1833 42.7074 96.9089 42.2366 96.4973 41.7658C96.0857 41.3623 95.6055 40.9588 95.0567 40.757C94.5079 40.488 93.8219 40.3534 93.1359 40.3534C92.4499 40.3534 91.7639 40.488 91.2151 40.757C90.6663 41.026 90.1861 41.3623 89.7745 41.7658C89.3629 42.1694 89.0885 42.7074 88.8827 43.3127C88.6769 43.918 88.5397 44.5233 88.5397 45.1286C88.5397 45.7339 88.6769 46.3392 88.8827 46.9445C89.0885 47.5498 89.3629 48.0206 89.7745 48.4242C90.1861 48.8277 90.6663 49.2313 91.2151 49.433C91.7639 49.6348 92.4499 49.8366 93.1359 49.8366C93.8219 49.8366 94.5079 49.702 95.0567 49.433C95.6055 49.164 96.0857 48.8277 96.4973 48.4242C96.9089 48.0206 97.1833 47.4826 97.3891 46.9445C97.5949 46.4065 97.7321 45.8012 97.7321 45.1286Z" fill="#474747"/>
<path d="M113.098 48.6932L116.871 39.6809H118.586V50.5764H117.42V41.0933L113.373 50.5764H112.755L108.708 41.0933V50.5764H107.542V39.6809H109.257L113.098 48.6932Z" fill="#474747"/>
<path d="M128.945 49.6349H134.913V50.6438H127.847V39.7483H134.776V40.7571H129.014V44.5235H134.433V45.5323H129.014V49.6349H128.945Z" fill="#474747"/>
<path d="M146.987 50.5763H145.821V40.6224H142.116V39.6135H150.691V40.6224H146.987V50.5763Z" fill="#474747"/>
<path d="M158.649 39.6809H161.804C162.353 39.6809 162.902 39.7482 163.314 39.8827C163.794 40.0172 164.137 40.1517 164.48 40.4207C164.823 40.6898 165.097 40.9588 165.234 41.3623C165.44 41.6986 165.509 42.1694 165.509 42.6402C165.509 43.111 165.44 43.5818 165.234 43.918C165.029 44.2543 164.823 44.5906 164.48 44.8596C164.137 45.1286 163.725 45.2632 163.314 45.3977C162.902 45.5322 162.353 45.5994 161.736 45.5994H159.746V50.6437H158.58V39.6809H158.649ZM159.815 44.5906H161.736C162.628 44.5906 163.314 44.3888 163.794 44.0526C164.274 43.7163 164.48 43.2455 164.48 42.5729C164.48 41.9004 164.274 41.4296 163.794 41.0933C163.314 40.757 162.628 40.6225 161.804 40.6225H159.884V44.5906H159.815Z" fill="#474747"/>
<path d="M175.25 48.9623L181.767 39.6809H183.207V50.5764H182.041V41.1605L175.524 50.5764H174.084V39.6809H175.25V48.9623Z" fill="#474747"/>
<path d="M194.595 45.1285C193.84 44.994 193.223 44.725 192.811 44.3215C192.331 43.9179 192.125 43.3126 192.125 42.5728C192.125 42.102 192.194 41.6985 192.4 41.2949C192.606 40.9586 192.88 40.6224 193.223 40.3533C193.566 40.0843 194.046 39.9498 194.526 39.8153C195.007 39.6808 195.624 39.6135 196.241 39.6135H199.534V50.509H198.368V45.3976H197.065C196.447 45.3976 195.898 45.4648 195.418 45.6666C194.938 45.8683 194.458 46.1374 194.115 46.5409C193.772 46.9444 193.429 47.4825 193.223 48.0878C193.017 48.7604 192.88 49.5674 192.743 50.509H191.508C191.577 49.8365 191.645 49.2311 191.782 48.6258C191.92 48.0205 192.125 47.4825 192.4 47.0117C192.674 46.5409 192.949 46.1374 193.292 45.8011C193.772 45.5993 194.183 45.3303 194.595 45.1285ZM198.368 40.6896H196.31C195.35 40.6896 194.595 40.8241 194.046 41.1604C193.497 41.4294 193.292 41.9675 193.292 42.5728C193.292 43.1781 193.566 43.6489 194.115 43.9852C194.664 44.3215 195.418 44.456 196.31 44.456H198.368V40.6896V40.6896Z" fill="#474747"/>
<path d="M218.948 50.5764H217.713L222.515 39.6809H223.613L228.415 50.5764H227.18L223.064 41.026L218.948 50.5764Z" fill="#474747"/>
<path d="M237.127 48.9623L243.644 39.6809H245.085V50.5764H243.918V41.1605L237.401 50.5764H235.961V39.6809H237.127V48.9623Z" fill="#474747"/>
<path d="M254.277 39.6809H255.443V44.3888H261.549V39.6809H262.715V50.5764H261.549V45.3977H255.443V50.5764H254.277V39.6809Z" fill="#474747"/>
<path d="M273.073 48.9623L279.59 39.6809H281.031V50.5764H279.865V41.1605L273.348 50.5764H271.907V39.6809H273.073V48.9623Z" fill="#474747"/>
<path d="M297.838 39.6809H299.278V50.5764H298.181V41.1606L291.664 50.5764H290.223V39.6809H291.389V48.9623L297.838 39.6809ZM292.761 36.5872C292.899 36.9907 293.104 37.2597 293.447 37.5287C293.79 37.7978 294.202 37.9323 294.682 37.9323C295.162 37.9323 295.574 37.7978 295.917 37.5287C296.26 37.2597 296.466 36.9907 296.603 36.5872L297.426 36.9907C297.358 37.2597 297.22 37.4615 297.083 37.6633C296.946 37.865 296.74 38.0668 296.466 38.2013C296.26 38.3358 295.986 38.4703 295.643 38.6048C295.368 38.6721 295.025 38.7394 294.614 38.7394C294.202 38.7394 293.928 38.6721 293.585 38.6048C293.31 38.5376 293.036 38.4031 292.761 38.2013C292.556 38.0668 292.35 37.865 292.144 37.6633C292.007 37.4615 291.87 37.1925 291.801 36.9907L292.761 36.5872Z" fill="#474747"/>
<path d="M22.6837 57.1678L37.6385 45.398V22.8672L22.6837 33.4936V57.1678Z" fill="#DB1D1E"/>
<path d="M0.663208 57.1677L15.6866 45.3979L15.7552 0L0.800406 11.7698L0.663208 57.1677Z" fill="#DB1D1E"/>
<path d="M37.6384 22.8672L22.6836 33.4936H0.731689L15.7551 22.8672H37.6384Z" fill="#E8E8E8"/>
</svg>
