<svg width="24" height="12" viewBox="0 0 24 12" fill="none" xmlns="http://www.w3.org/2000/svg">
<path d="M0 5.90919C0.121535 5.52897 0.414509 5.45526 0.77148 5.45526C7.77038 5.45877 14.7695 5.45877 21.7688 5.45526H22.121C22.0206 5.34646 21.9613 5.27978 21.8985 5.21602L17.7417 1.06926C17.6977 1.02539 17.6519 0.982687 17.6102 0.936475C17.3871 0.687284 17.38 0.379011 17.5914 0.160822C17.8028 -0.0573664 18.1139 -0.0521021 18.3682 0.167842C18.421 0.213468 18.4703 0.263776 18.5202 0.313497L23.7075 5.47983C24.095 5.8659 24.0973 6.12913 23.7157 6.50936C21.9594 8.26032 20.2029 10.0105 18.4462 11.7599C18.1644 12.0401 17.8632 12.0764 17.6196 11.8617C17.5204 11.7779 17.4564 11.6599 17.4405 11.5313C17.4245 11.4027 17.4576 11.2728 17.5333 11.1674C17.6044 11.0743 17.6829 10.987 17.7681 10.9065C19.1482 9.53026 20.529 8.15425 21.9103 6.77844C21.969 6.71994 22.0277 6.65793 22.1281 6.54972H21.784C14.7777 6.54972 7.77136 6.54972 0.765022 6.54972C0.426251 6.54972 0.153239 6.46899 0.00587114 6.14025L0 5.90919Z" fill="#DB1D1E"/>
</svg>
