<svg width="19" height="17" viewBox="0 0 19 17" fill="none" xmlns="http://www.w3.org/2000/svg">
<path d="M18.5034 6.38256C18.4316 6.31692 18.3433 6.2709 18.2473 6.24904L12.9721 5.0644L10.1861 0.565956C10.0275 0.307816 9.68344 0.223371 9.41762 0.377294C9.33775 0.423559 9.27098 0.488394 9.22334 0.565956L6.42416 5.0644L1.1489 6.24904C0.847628 6.31828 0.661181 6.61148 0.732479 6.90404C0.753003 6.98849 0.794051 7.06685 0.852161 7.13273L4.40967 11.1029L3.94149 16.3409C3.9128 16.6384 4.13799 16.9022 4.44437 16.93C4.53718 16.9385 4.63065 16.9242 4.71629 16.8884L9.70141 14.8361L14.647 16.8692C14.9205 17.0101 15.2597 16.9089 15.4047 16.6433C15.4554 16.5506 15.4773 16.4455 15.4679 16.3409L14.9965 11.1029L18.5276 7.15193C18.7397 6.93302 18.7289 6.58859 18.5034 6.38256Z" fill="#FDCACA"/>
</svg>
