<svg width="19" height="17" viewBox="0 0 19 17" fill="none" xmlns="http://www.w3.org/2000/svg">
<path d="M18.5637 6.38256C18.4919 6.31692 18.4036 6.2709 18.3076 6.24904L13.0324 5.0644L10.2464 0.565956C10.0878 0.307816 9.74375 0.223371 9.47792 0.377294C9.39805 0.423559 9.33129 0.488394 9.28364 0.565956L6.48446 5.0644L1.2092 6.24904C0.907931 6.31828 0.721483 6.61148 0.792782 6.90404C0.813306 6.98849 0.854354 7.06685 0.912464 7.13273L4.46997 11.1029L4.00179 16.3409C3.97311 16.6384 4.19829 16.9022 4.50467 16.93C4.59748 16.9385 4.69095 16.9242 4.77659 16.8884L9.76171 14.8361L14.7073 16.8692C14.9808 17.0101 15.32 16.9089 15.465 16.6433C15.5157 16.5506 15.5376 16.4455 15.5282 16.3409L15.0568 11.1029L18.5879 7.15193C18.8001 6.93302 18.7892 6.58859 18.5637 6.38256Z" fill="#DB1D1E"/>
</svg>
