<svg width="46" height="44" viewBox="0 0 46 44" fill="none" xmlns="http://www.w3.org/2000/svg">
<ellipse cx="22.8565" cy="22" rx="22.149" ry="22" fill="#DB1D1E"/>
<g clip-path="url(#clip0_420_231)">
<path d="M19.8592 15.074C20.515 15.0027 21.1757 14.9982 21.8351 15.0009C22.3834 15.0272 22.9385 15.0325 23.4738 15.1675C23.6855 15.2249 23.9075 15.3207 24.0262 15.5135C24.2284 15.8698 24.2587 16.2892 24.2433 16.6905C24.2149 17.8038 24.1756 18.9171 24.1702 20.0304C24.1923 20.3515 24.1937 20.69 24.3444 20.9834C24.4423 21.174 24.6274 21.3477 24.8589 21.3321C25.0534 21.309 25.1902 21.154 25.331 21.0324C25.8085 20.6316 26.1479 20.1062 26.4891 19.5954C27.1887 18.5418 27.7764 17.4199 28.2429 16.2474C28.3219 16.0572 28.4045 15.8537 28.5737 15.7232C28.6947 15.6221 28.8621 15.6199 29.0124 15.6155C30.1998 15.6052 31.3877 15.6026 32.5751 15.5883C32.9168 15.5616 33.2855 15.5585 33.5892 15.737C33.7319 15.8154 33.7838 15.9789 33.7946 16.1303V16.1663C33.754 16.5845 33.5644 16.9679 33.3676 17.3335C32.5264 18.8419 31.3503 20.128 30.3569 21.5348C30.2048 21.7681 30.041 22.0144 30.0279 22.3012C30.0148 22.588 30.1678 22.8561 30.3619 23.0582C30.8804 23.6158 31.4608 24.1119 32.002 24.6467C32.4619 25.1156 32.9109 25.5979 33.2923 26.1319C33.4462 26.3888 33.6601 26.6217 33.7228 26.921C33.7734 27.1263 33.8104 27.3592 33.7079 27.5551C33.5658 27.7414 33.355 27.8649 33.1212 27.8989C32.7313 27.9542 32.3368 27.9372 31.9442 27.9484C31.102 27.9657 30.259 27.9635 29.4168 27.9974C28.8301 27.9421 28.2731 27.6736 27.834 27.2897C27.2861 26.8199 26.8411 26.2503 26.3496 25.7275C26.1328 25.48 25.8834 25.2623 25.6081 25.08C25.3924 24.9411 25.0755 24.8778 24.8706 25.0693C24.4306 25.4038 24.2898 25.968 24.2266 26.4859C24.1711 26.8707 24.2717 27.2982 24.0429 27.6438C23.8173 27.911 23.4314 27.9506 23.0992 27.9363C22.6335 27.9363 22.1672 27.9328 21.7001 27.9395C20.9803 27.9395 20.2685 27.7796 19.5956 27.5356C18.9024 27.2933 18.2787 26.8987 17.6712 26.497C17.0366 26.0845 16.4614 25.5893 15.9611 25.0248C15.2435 24.1633 14.57 23.267 13.9433 22.339C13.0176 20.9407 12.2251 19.4627 11.4773 17.9646C11.2986 17.5759 11.1201 17.1872 10.942 16.7983C10.8432 16.5778 10.7209 16.3623 10.687 16.1196V15.9936C10.7574 15.6907 11.1049 15.5972 11.3798 15.5928C12.4426 15.5767 13.506 15.579 14.5693 15.5656C14.8303 15.5585 15.0859 15.6394 15.2941 15.7949C15.5157 15.9557 15.5933 16.2278 15.7003 16.4629C16.129 17.4752 16.6711 18.4339 17.1783 19.4088C17.5566 20.0612 17.9415 20.7501 18.5689 21.203C18.7774 21.3664 19.0834 21.4306 19.3212 21.2921C19.6141 20.9269 19.6746 20.4459 19.7188 19.9984C19.838 19.1817 19.8244 18.3507 19.7391 17.5317C19.6818 17.159 19.6272 16.7693 19.4291 16.4398C19.1786 16.088 18.7322 15.9873 18.3328 15.8983C18.3929 15.6653 18.5946 15.5081 18.7841 15.3728C19.096 15.1537 19.4914 15.131 19.8592 15.074Z" fill="white"/>
</g>
<defs>
<clipPath id="clip0_420_231">
<rect width="23.1076" height="13" fill="white" transform="translate(10.687 15)"/>
</clipPath>
</defs>
</svg>
