<svg width="44" height="44" viewBox="0 0 44 44" fill="none" xmlns="http://www.w3.org/2000/svg">
<g clip-path="url(#clip0_490_690)">
<path d="M9.80729 0H10.6635C11.5817 0.211979 12.237 0.802082 12.8809 1.45177C16.161 4.75101 19.4504 8.04299 22.7489 11.3277C22.8465 11.4251 22.9521 11.5156 23.099 11.6508C23.2218 11.503 23.3136 11.3735 23.4238 11.2624C25.7605 8.92108 28.0977 6.58129 30.4352 4.24302C30.9838 3.67457 31.6671 3.2533 32.4219 3.01813C34.6094 2.35354 36.7981 1.69469 38.9834 1.02323C40.0577 0.693228 41.125 0.341458 42.197 0H42.8856C43.1386 0.099643 43.3684 0.250269 43.5605 0.442482C43.7527 0.634696 43.9031 0.864374 44.0023 1.11719V1.80469C43.9636 1.87859 43.9302 1.95518 43.9025 2.03385C42.9568 5.13563 42.0053 8.23625 41.0734 11.3415C40.8156 12.2221 40.3368 13.0223 39.6823 13.6664C37.3548 15.9729 35.0456 18.2967 32.7295 20.6147C32.6147 20.7224 32.5183 20.837 32.3989 20.9642C32.5229 21.0948 32.6285 21.2094 32.7433 21.3182C36.0135 24.5984 39.2891 27.8758 42.57 31.1506C43.2311 31.8072 43.8187 32.4844 44 33.4297V34.2031C43.7866 35.1691 43.1611 35.8531 42.4805 36.5234C40.4628 38.5096 38.46 40.5136 36.4722 42.5356C35.7985 43.2231 35.0949 43.8258 34.1205 44H33.4319C32.4598 43.8052 31.7746 43.1842 31.1009 42.5104C27.8574 39.2402 24.6029 35.9811 21.3372 32.733C21.2225 32.6184 21.0985 32.5039 20.9367 32.3503C20.8047 32.5073 20.7072 32.6368 20.6004 32.7479C17.4568 35.8955 14.3017 39.0305 11.1719 42.193C10.357 43.0169 9.5261 43.772 8.34625 44.0057H7.3133C6.11853 43.7605 5.26922 42.9963 4.46582 42.1506C3.43287 41.0747 2.36664 40.0377 1.31419 38.9835C-0.434934 37.2304 -0.43149 35.1015 1.32222 33.346L11.2844 23.3773C11.3992 23.2627 11.5139 23.1378 11.6689 22.9751C11.5128 22.8445 11.3843 22.7517 11.2729 22.6405C7.88946 19.2603 4.50675 15.879 1.12482 12.4965C-0.340817 11.0298 -0.344258 9.35917 1.11219 7.90167C3.27793 5.73375 5.454 3.57614 7.60597 1.39448C8.23606 0.751665 8.89715 0.189063 9.80729 0ZM32.4173 41.6843C33.2609 42.743 34.1389 42.806 35.0571 41.8848L41.8883 35.0522C42.7456 34.194 42.7513 33.4205 41.9043 32.5726C38.4956 29.1603 35.0861 25.7484 31.6759 22.3369C31.5668 22.2223 31.4521 22.1238 31.3786 22.0527L22.1085 31.3259L23.1128 32.403C23.2509 32.2104 23.402 32.0275 23.565 31.8553C23.8989 31.5448 24.3064 31.5505 24.5979 31.8416C24.8894 32.1326 24.8986 32.5291 24.5979 32.8797C24.4418 33.0573 24.2731 33.2234 24.1813 33.3197L25.1993 34.4071C25.484 34.1069 25.7732 33.7895 26.0762 33.4904C26.4664 33.1043 26.8796 33.0825 27.2044 33.4148C27.5292 33.7471 27.4844 34.1447 27.1171 34.5148C26.8061 34.8276 26.4744 35.1187 26.1691 35.404L27.2147 36.4822C27.6428 36.1316 28.0445 35.3959 28.6941 36.0067C29.3942 36.6644 28.6034 37.0918 28.2878 37.5203L29.3127 38.5963C29.5572 38.3339 29.7833 38.076 30.0243 37.832C30.5672 37.2808 30.9861 37.1995 31.3396 37.565C31.6931 37.9305 31.5967 38.335 31.0446 38.8816C30.8025 39.1199 30.5511 39.3502 30.3147 39.5691L31.3476 40.6083C32.2348 39.8876 32.5585 39.7753 32.8764 40.15C33.4881 40.8753 32.7662 41.234 32.4162 41.6843H32.4173ZM12.6226 21.9198L21.9375 12.6019C21.9042 12.5664 21.8365 12.4873 21.7665 12.422C18.3149 8.96996 14.8637 5.51757 11.4129 2.06479C10.6095 1.25698 9.81418 1.26271 8.99471 2.08771L2.13251 8.95125C1.21434 9.86792 1.27976 10.7731 2.34254 11.5935C2.78786 11.2498 3.19185 10.466 3.85408 11.1192C4.54271 11.7975 3.72554 12.2054 3.43517 12.6088L4.46812 13.6755C4.74586 13.3845 5.03393 13.0671 5.33808 12.7669C5.72027 12.3876 6.15755 12.3658 6.46858 12.6947C6.7624 13.0041 6.73256 13.4349 6.36988 13.7981C6.06115 14.1075 5.73405 14.3985 5.4804 14.6369L6.51335 15.7071C7.34085 14.9829 7.62548 14.8901 8.00538 15.2361C8.38527 15.5822 8.31755 15.8606 7.56924 16.7899L8.52299 17.8074C8.55797 17.7976 8.59153 17.7834 8.62284 17.765C8.91895 17.474 9.21048 17.1783 9.50888 16.8896C9.88763 16.5241 10.2893 16.4954 10.6084 16.8014C10.9275 17.1073 10.9183 17.545 10.5361 17.9323C10.2274 18.2451 9.90026 18.5384 9.58349 18.8375L10.7071 19.9192C10.8215 19.7646 10.9445 19.6166 11.0755 19.4757C11.4198 19.1389 11.8422 19.1182 12.1463 19.407C12.4505 19.6957 12.462 20.1426 12.1016 20.507C11.9412 20.6426 11.7683 20.7627 11.5851 20.8656L12.6226 21.9198ZM31.1663 5.75552L8.80189 28.1268L11.7779 31.1059L34.1504 8.73583L31.1663 5.75552ZM15.8626 35.2917L38.2764 12.87L35.2923 9.87365L12.874 32.2965L15.8626 35.2917ZM11.0962 40.1294L3.8713 32.8992C3.29744 33.4721 2.67768 34.0588 2.09119 34.6832C1.28779 35.538 1.25336 36.803 2.05906 37.6395C3.46846 39.1016 4.90386 40.5381 6.36529 41.949C6.74944 42.3249 7.26365 42.5391 7.80155 42.5472C8.33945 42.5553 8.85989 42.3567 9.25524 41.9925C9.91976 41.3887 10.5212 40.716 11.0962 40.1294ZM39.3564 11.6818C39.4355 11.5268 39.5052 11.3672 39.5653 11.204C40.0473 9.63302 40.5294 8.06323 40.9896 6.48542C41.0009 6.40354 40.9944 6.32018 40.9704 6.24107C40.9465 6.16195 40.9056 6.08896 40.8507 6.02708C39.9119 5.06458 38.949 4.125 38.0101 3.1625C37.8162 2.96312 37.6474 2.95625 37.4099 3.02958C35.9098 3.49364 34.4052 3.94625 32.9039 4.40458C32.7085 4.4767 32.517 4.55893 32.3301 4.65094L39.3564 11.6818ZM5.05804 31.7625L12.2163 38.9159L14.7287 36.4329L7.55432 29.2623L5.05804 31.7625ZM41.5967 4.55239L42.5287 1.47469L39.4459 2.41656L41.5967 4.55239Z" fill="white"/>
</g>
<defs>
<clipPath id="clip0_490_690">
<rect width="44" height="44" fill="white"/>
</clipPath>
</defs>
</svg>
