<svg width="50" height="50" viewBox="0 0 50 50" fill="none" xmlns="http://www.w3.org/2000/svg">
<g clip-path="url(#clip0_490_727)">
<path d="M0 35.2539C0.244792 34.3697 0.520835 33.4856 1.26302 32.888C1.75019 32.4928 2.28902 32.166 2.86458 31.9166C3.23437 31.7591 3.33464 31.5989 3.33203 31.2213C3.31381 28.9921 3.32162 26.763 3.32292 24.5338C3.32292 22.6627 4.3125 21.6692 6.1875 21.6692C13.7396 21.6692 21.2917 21.6914 28.8346 21.6497C30.4479 21.6419 31.7279 22.7304 31.6771 24.5C31.6146 26.7278 31.6771 28.9583 31.6549 31.1875C31.6549 31.5781 31.724 31.7799 32.1497 31.9075C32.9344 32.1448 33.626 32.6199 34.1291 33.2671C34.6322 33.9144 34.922 34.7018 34.9583 35.5208C35.0169 37.5039 34.9922 39.4895 34.9961 41.4739C34.9961 43.9309 34.9961 46.388 34.9961 48.845C34.9961 49.3658 34.8815 49.776 34.3711 49.996H30.5625C30.112 49.7226 29.9648 49.3151 29.9818 48.802C30.0052 48.108 29.9818 47.4127 29.9818 46.7031H4.98177C4.98177 47.4505 4.95964 48.1653 4.98177 48.8776C5.00391 49.3893 4.83073 49.7591 4.3776 49.996H0V35.2539ZM33.2956 39.9817C33.2956 38.4283 33.2956 36.9349 33.2956 35.4401C33.288 35.359 33.2696 35.2793 33.2409 35.2031C32.9075 33.9947 31.9635 33.3281 30.5508 33.3281C21.8468 33.3281 13.1419 33.3281 4.4362 33.3281C4.35547 33.3281 4.27344 33.3281 4.19271 33.3281C2.64974 33.4244 1.68099 34.4401 1.66797 35.9895C1.65885 37.194 1.66797 38.3984 1.66797 39.6028C1.67443 39.7289 1.68746 39.8545 1.70703 39.9791L33.2956 39.9817ZM3.32682 48.3151V46.2656C3.32682 45.2395 3.5599 45.0078 4.59245 45.0078H30.4193C31.4349 45.0078 31.6589 45.2278 31.6602 46.2291V48.3125H33.2943V41.7057H1.69271V48.3164L3.32682 48.3151ZM18.3398 31.6406C18.3398 30.608 18.3398 29.6341 18.3398 28.6601C18.3398 26.8372 19.3229 25.8502 21.1328 25.8424C22.5981 25.8363 24.0625 25.8363 25.526 25.8424C25.8347 25.8345 26.1433 25.8629 26.4453 25.927C26.9715 26.0524 27.441 26.3491 27.78 26.7706C28.119 27.1921 28.3082 27.7144 28.3177 28.2552C28.3411 29.3711 28.3177 30.4895 28.3177 31.6171H29.9857V31.1484C29.9857 28.9192 29.9857 26.6901 29.9857 24.4609C29.9857 23.595 29.7188 23.332 28.8451 23.332H6.15234C5.26823 23.332 4.99349 23.6093 4.99219 24.5039C4.99219 26.7165 4.99219 28.9301 4.99219 31.1445C4.99219 31.302 5.00651 31.4596 5.01302 31.6145H6.66016C6.66016 30.5507 6.64844 29.5312 6.66016 28.5039C6.67969 26.9492 7.61589 25.8997 9.125 25.8541C10.8802 25.8046 12.6406 25.8294 14.3945 25.8711C14.8065 25.8727 15.2091 25.9945 15.5528 26.2217C15.8965 26.4488 16.1664 26.7713 16.3294 27.1497C16.5324 27.624 16.6433 28.1326 16.6562 28.6484C16.7057 29.6328 16.6719 30.621 16.6719 31.6315L18.3398 31.6406ZM8.33333 31.621H14.9896C14.9896 30.496 15.013 29.4075 14.9792 28.3229C14.9635 27.7851 14.6393 27.5169 14.0742 27.513C12.4648 27.5 10.8546 27.5 9.24349 27.513C8.6862 27.513 8.36068 27.7955 8.34375 28.332C8.3138 29.4179 8.33333 30.5052 8.33333 31.621ZM26.6497 31.6354C26.6497 30.4935 26.6693 29.3763 26.6406 28.2591C26.6289 27.7968 26.2904 27.5195 25.776 27.5143C24.1493 27.5004 22.523 27.5004 20.8971 27.5143C20.306 27.5143 20.0195 27.8398 20.0091 28.444C19.9987 29.0481 20.0091 29.6471 20.0091 30.2487C20.0091 30.7122 20.0091 31.177 20.0091 31.6354H26.6497Z" fill="white"/>
<path d="M25.1953 3.92599e-05C33.1814 3.58164 41.1645 7.16671 49.1445 10.7552C49.4648 10.8998 49.7161 11.1993 50 11.4258V21.6797H48.3359V21.1172C48.3359 18.3021 48.3359 15.487 48.3438 12.6719C48.3438 12.3373 48.2578 12.1602 47.9336 12.0209C40.4128 8.66063 32.8984 5.29127 25.3906 1.9128C25.2715 1.85115 25.1393 1.81898 25.0052 1.81898C24.8711 1.81898 24.7389 1.85115 24.6198 1.9128C17.1085 5.2904 9.59244 8.65803 2.07161 12.0157C1.74739 12.1602 1.66016 12.3373 1.66146 12.6667C1.67448 15.4649 1.66927 18.2657 1.66927 21.0625V21.6745H0V11.4258C0.239583 11.2201 0.447916 10.9427 0.723958 10.8177C8.64496 7.25004 16.5699 3.69101 24.4987 0.140663C24.6016 0.0950896 24.7031 0.0456136 24.8047 -0.00256348L25.1953 3.92599e-05Z" fill="white"/>
<path d="M49.9999 45.0195H48.345V40.0377H38.3463V44.9778H36.6887C36.6809 44.8086 36.6653 44.6354 36.6653 44.457C36.6653 40.602 36.6653 36.7456 36.6653 32.888C36.6653 31.9036 36.9257 31.6549 37.9166 31.6549C41.5286 31.6549 45.1419 31.6549 48.7538 31.6471C49.2747 31.6471 49.7109 31.7552 50.0012 32.2213L49.9999 45.0195ZM38.3879 33.3554V38.2916H48.3072V33.3554H38.3879Z" fill="white"/>
<path d="M44.2032 28.319H45.7891V29.9688C45.6198 29.9766 45.4623 29.9909 45.3034 29.9909H40.8529V28.3412H42.4636V25.836C41.8334 25.836 41.2071 25.836 40.5808 25.836C40.3377 25.8413 40.0946 25.8256 39.8542 25.7891C39.3724 25.698 39.0639 25.2852 39.211 24.8217C39.754 23.1042 40.3308 21.3972 40.9037 19.6914C41.0339 19.3008 41.375 19.1706 41.7592 19.1641C42.8008 19.158 43.8425 19.158 44.8842 19.1641C45.3607 19.1641 45.6732 19.3946 45.8269 19.8594C46.3477 21.431 46.8802 22.9987 47.3894 24.573C47.6381 25.3373 47.2904 25.8125 46.4779 25.8334C45.7318 25.8516 44.9857 25.8334 44.198 25.8334L44.2032 28.319ZM41.1823 24.1029H45.487C45.1433 23.0612 44.836 22.0925 44.4896 21.1289C44.4564 21.0565 44.4068 20.9927 44.3446 20.9427C44.2824 20.8928 44.2095 20.858 44.1316 20.8412C43.5977 20.8086 43.0586 20.8178 42.5222 20.8347C42.4624 20.838 42.4042 20.8549 42.3521 20.8843C42.2999 20.9136 42.2552 20.9546 42.2214 21.0039C41.8646 22.0274 41.5287 23.0573 41.1823 24.1029Z" fill="white"/>
<path d="M30.7058 11.5338C31.2019 14.0612 29.8699 16.6276 27.5014 17.7617C26.6382 18.1764 25.6861 18.3717 24.7293 18.3302C23.7726 18.2887 22.8409 18.0118 22.0169 17.5239C21.1929 17.0361 20.502 16.3524 20.0055 15.5335C19.509 14.7147 19.2223 13.7859 19.1708 12.8297C19.1193 11.8735 19.3045 10.9193 19.7102 10.0518C20.1158 9.18438 20.7292 8.43042 21.4961 7.85686C22.2629 7.28329 23.1595 6.90785 24.1062 6.76382C25.0529 6.6198 26.0205 6.71164 26.9233 7.03121C26.7514 7.526 26.5782 8.0221 26.392 8.55204C24.7956 8.11585 23.3621 8.35934 22.1498 9.48043C21.2996 10.2617 20.892 11.2747 20.8386 12.4283C20.7371 14.6549 22.6733 16.651 24.9818 16.6562C27.2214 16.6562 29.4246 14.8164 29.1212 11.8125L30.7058 11.5338Z" fill="white"/>
<path d="M22.7383 12.2812L23.9583 11.0677L24.8529 12.1979L30.1641 6.88147L31.3854 8.10543C31.2734 8.22522 31.1693 8.34631 31.0573 8.45829C29.3212 10.1944 27.5851 11.9305 25.849 13.6666C25.181 14.3346 24.8333 14.3333 24.1693 13.6783C23.6979 13.2187 23.2357 12.7669 22.7383 12.2812Z" fill="white"/>
<path d="M41.6992 36.6328V35.026H44.9818V36.6302L41.6992 36.6328Z" fill="white"/>
</g>
<defs>
<clipPath id="clip0_490_727">
<rect width="50" height="50" fill="white"/>
</clipPath>
</defs>
</svg>
