<svg width="60" height="48" viewBox="0 0 60 48" fill="none" xmlns="http://www.w3.org/2000/svg">
<g clip-path="url(#clip0_490_706)">
<path d="M60.0002 30.6659C59.719 31.186 59.2659 31.3424 58.6862 31.324C57.8127 31.2979 56.9377 31.324 56.0174 31.324C55.9237 33.243 55.2002 34.8169 53.6737 35.9843C52.5755 36.8384 51.1999 37.2742 49.8002 37.2115C47.3362 37.1286 44.3049 35.3323 44.0487 31.3823H22.9456C22.8487 33.3872 22.0299 35.0347 20.3284 36.196C19.2176 36.9686 17.8623 37.3266 16.5065 37.2053C13.8768 36.9952 11.194 35.0194 10.9924 31.3639C10.794 31.3639 10.5893 31.3394 10.3831 31.3394C9.05493 31.3394 7.72733 31.3394 6.40025 31.3394C4.719 31.3394 4.0018 30.6429 4.00024 29.0123C4.00024 28.4984 4.00024 27.9845 4.00024 27.3955C3.06274 27.3955 2.16587 27.3725 1.27369 27.4047C0.711185 27.4261 0.287744 27.262 0.000244141 26.7911V26.2174C0.259619 25.7572 0.653366 25.5577 1.19868 25.5608C4.02993 25.5731 6.86119 25.5608 9.69244 25.5608C9.78993 25.5585 9.88748 25.5616 9.98462 25.57C10.5409 25.6375 10.9096 26.021 10.894 26.5134C10.8784 27.0058 10.5002 27.3801 9.92993 27.3893C8.81743 27.4077 7.70337 27.3893 6.59087 27.3893H5.91899V29.4955H7.85805C8.87368 29.4955 9.8893 29.4832 10.9049 29.4955C11.2284 29.4955 11.3737 29.3927 11.5096 29.1043C12.5909 26.8248 14.4299 25.5624 16.9924 25.5762C19.5268 25.5762 21.3549 26.8294 22.4268 29.0921C22.5581 29.3682 22.6909 29.5001 23.0252 29.5001C29.2534 29.4899 35.4825 29.4868 41.7127 29.4909C41.8081 29.4909 41.9034 29.4756 42.0518 29.4648C42.0627 29.2439 42.0784 29.0414 42.0799 28.839C42.0799 26.8294 42.058 24.8199 42.1018 22.8104C42.1166 22.4225 42.2847 22.0554 42.5705 21.7872C43.1502 21.327 43.9471 21.8317 43.958 22.6263C43.9737 23.9854 43.958 25.343 43.958 26.7021C43.958 27.4691 43.9487 28.2361 43.9659 29.0031C43.998 29.1713 44.0559 29.3337 44.1377 29.4848C44.2799 29.362 44.4831 29.2669 44.5565 29.112C45.3784 27.3755 46.7034 26.2143 48.6049 25.7372C49.9505 25.3974 51.3753 25.5364 52.6264 26.1298C53.8775 26.7231 54.8741 27.7324 55.4393 28.9785C55.619 29.3666 55.8128 29.5338 56.2581 29.5016C56.8565 29.4587 57.4596 29.4909 58.0862 29.4909C58.1018 29.3022 58.1206 29.1734 58.1221 29.0445C58.1221 27.8618 58.1221 26.6791 58.1221 25.4151C57.6877 25.4151 57.3034 25.4304 56.919 25.4151C56.1799 25.3905 55.4785 25.0885 54.9593 24.5714C54.4401 24.0543 54.1427 23.3614 54.1284 22.6355C54.1096 21.9866 54.1128 21.3347 54.1284 20.6843C54.1409 20.0032 54.4784 19.6718 55.1846 19.6626C56.0784 19.6488 56.9721 19.6626 57.8737 19.6626C57.7049 18.6318 56.5862 17.6301 55.3971 17.6163C51.6128 17.5718 47.8268 17.5994 43.958 17.5994C43.958 17.943 43.969 18.2621 43.958 18.5796C43.933 19.1656 43.5549 19.5461 43.0205 19.5399C42.5143 19.5399 42.1393 19.1672 42.083 18.6195C42.069 18.4492 42.083 18.2759 42.083 18.1041V1.86992H5.87837V17.9967C5.87837 18.1501 5.87837 18.3035 5.87837 18.4569C5.86274 19.1043 5.52681 19.5 4.97993 19.5184C4.43306 19.5369 4.00806 19.115 4.00493 18.4615C3.99556 16.4336 4.00493 14.4057 4.00493 12.3762C4.00493 8.98915 4.00493 5.60211 4.00493 2.21506C4.00493 0.7363 4.76431 0.00305176 6.28306 0.00305176C18.0976 0.00305176 29.9122 0.00305176 41.7268 0.00305176C43.219 0.00305176 43.9581 0.725563 43.9627 2.18285C43.9627 2.73509 43.9627 3.28732 43.9627 3.89325C44.2127 3.90398 44.4206 3.92239 44.6268 3.92239C46.6377 3.92239 48.6502 3.96228 50.6612 3.91319C53.1909 3.85183 55.3909 5.56529 54.9503 8.92166C54.9096 9.22845 54.5768 9.4969 54.3049 9.89114C54.7518 11.643 55.2315 13.5512 55.7346 15.4534C55.7627 15.5369 55.8094 15.6133 55.8713 15.677C55.9332 15.7407 56.0087 15.79 56.0924 15.8215C58.1893 16.3523 59.4612 17.647 59.9237 19.7148C59.9426 19.7697 59.9701 19.8214 60.0049 19.8682L60.0002 30.6659ZM53.8081 15.7065C53.7815 15.5285 53.7721 15.415 53.7456 15.3061C53.3159 13.6187 52.8721 11.939 52.4659 10.244C52.3674 9.82978 52.1924 9.69939 51.7612 9.70246C49.3612 9.7224 46.9612 9.71166 44.5612 9.71473C44.3737 9.71473 44.1877 9.73927 44.0018 9.75308V15.7034L53.8081 15.7065ZM50.0362 35.3661C50.8397 35.3661 51.6251 35.1322 52.2932 34.6939C52.9613 34.2557 53.482 33.6328 53.7894 32.904C54.0969 32.1752 54.1774 31.3733 54.0206 30.5996C53.8639 29.8259 53.4769 29.1153 52.9088 28.5575C52.3406 27.9997 51.6168 27.6199 50.8287 27.466C50.0407 27.3121 49.2239 27.3911 48.4815 27.6929C47.7392 27.9948 47.1047 28.506 46.6583 29.1619C46.2119 29.8178 45.9737 30.5889 45.9737 31.3777C45.9859 32.4311 46.4181 33.4378 47.1775 34.1819C47.937 34.9261 48.9632 35.3484 50.0362 35.3584V35.3661ZM16.9956 35.3661C17.7991 35.3597 18.5826 35.1195 19.2471 34.6759C19.9115 34.2323 20.4271 33.6052 20.7285 32.8739C21.0299 32.1426 21.1036 31.34 20.9404 30.5676C20.7771 29.7951 20.3842 29.0876 19.8114 28.5344C19.2385 27.9812 18.5114 27.6072 17.722 27.4598C16.9326 27.3123 16.1165 27.398 15.3767 27.7059C14.6369 28.0139 14.0067 28.5303 13.5659 29.1899C13.1251 29.8495 12.8935 30.6226 12.9002 31.4114C12.9183 32.4655 13.3579 33.4702 14.1242 34.2087C14.8904 34.9472 15.9218 35.3602 16.9956 35.3584V35.3661ZM43.9924 7.80952H53.0549C53.1003 6.62681 52.2143 5.77238 50.9331 5.76471C48.7456 5.75244 46.5581 5.76471 44.3799 5.76471C44.249 5.7746 44.119 5.79357 43.9909 5.82147L43.9924 7.80952ZM58.094 21.508H56.0628C55.8003 23.2552 56.4753 23.8918 58.094 23.4608V21.508Z" fill="white"/>
<path d="M23.008 17.2957L31.0018 9.44477C31.6877 8.77135 32.1924 8.66858 32.6534 9.10576C33.1143 9.54295 33.0112 10.0798 32.3502 10.7272C29.5471 13.4761 26.7435 16.2235 23.9393 18.9693C23.1721 19.7225 22.8018 19.721 22.033 18.9693C20.5143 17.4813 18.9846 16.0026 17.4877 14.4931C17.2643 14.2692 17.0549 13.8918 17.0846 13.6095C17.1143 13.3273 17.419 12.9361 17.6721 12.8763C17.8534 12.8458 18.0391 12.8534 18.2172 12.8987C18.3952 12.9439 18.5615 13.0257 18.7049 13.1386C19.9971 14.3321 21.2346 15.5838 22.4924 16.8202C22.6424 16.9582 22.7987 17.0994 23.008 17.2957Z" fill="white"/>
<path d="M32.0501 27.3663H25.4314C25.2168 27.3746 25.0019 27.3643 24.7892 27.3356C24.3204 27.2482 24.0158 26.9107 24.0814 26.4919C24.1314 26.1728 24.4236 25.8538 24.6876 25.6206C24.8283 25.4964 25.1345 25.5332 25.3673 25.5332C29.7986 25.5332 34.2309 25.5332 38.6642 25.5332C38.8008 25.5286 38.9376 25.5332 39.0736 25.547C39.6236 25.6206 39.9845 26.021 39.9532 26.5134C39.9407 26.7468 39.8356 26.9662 39.6603 27.1244C39.4851 27.2827 39.2537 27.3673 39.0157 27.3602C38.2736 27.3832 37.5314 27.3694 36.7892 27.3694L32.0501 27.3663Z" fill="white"/>
<path d="M8.96429 23.4378C7.032 23.4378 5.09971 23.4378 3.16742 23.4378C2.42836 23.4378 2.00023 23.0927 2.00492 22.5174C2.00961 21.9422 2.45335 21.597 3.18148 21.597C7.04606 21.597 10.9096 21.597 14.7721 21.597C15.2159 21.597 15.6377 21.7014 15.7815 22.1247C15.8737 22.3947 15.8721 22.8304 15.7065 23.0175C15.4541 23.2644 15.1157 23.4081 14.7596 23.4194C12.8284 23.4562 10.8955 23.4378 8.96429 23.4378Z" fill="white"/>
<path d="M50.0191 29.477C50.2732 29.4722 50.5258 29.5167 50.7622 29.6082C50.9987 29.6996 51.2144 29.8361 51.3968 30.0099C51.5793 30.1836 51.7249 30.391 51.8253 30.6202C51.9256 30.8495 51.9788 31.0959 51.9816 31.3454C51.9846 31.5954 51.9374 31.8436 51.8427 32.0756C51.748 32.3077 51.6076 32.5192 51.4297 32.6981C51.2517 32.8769 51.0396 33.0196 50.8055 33.1179C50.5714 33.2163 50.3198 33.2684 50.0652 33.2714C49.8106 33.2743 49.5578 33.2279 49.3214 33.135C49.085 33.042 48.8696 32.9042 48.6874 32.7295C48.5053 32.5548 48.3599 32.3466 48.2597 32.1167C48.1596 31.8869 48.1065 31.6399 48.1035 31.3899C48.0998 31.1404 48.1465 30.8927 48.2411 30.661C48.3356 30.4294 48.4761 30.2185 48.6542 30.0406C48.8324 29.8627 49.0448 29.7212 49.2791 29.6245C49.5134 29.5277 49.7649 29.4776 50.0191 29.477Z" fill="white"/>
<path d="M18.9065 31.3409C18.9108 31.5909 18.8649 31.8393 18.7713 32.0718C18.6777 32.3043 18.5383 32.5164 18.3611 32.696C18.1839 32.8755 17.9723 33.019 17.7385 33.1181C17.5047 33.2172 17.2533 33.2701 16.9987 33.2737C16.4855 33.272 15.993 33.0748 15.6249 32.7238C15.2568 32.3727 15.0418 31.8951 15.0252 31.3915C15.023 31.142 15.0708 30.8945 15.166 30.6631C15.2612 30.4318 15.402 30.2211 15.5802 30.0432C15.7584 29.8652 15.9705 29.7235 16.2045 29.6261C16.4385 29.5287 16.6898 29.4776 16.944 29.4756C17.1986 29.4676 17.4524 29.5099 17.69 29.6C17.9277 29.6901 18.1445 29.8262 18.3276 30.0002C18.5106 30.1742 18.6562 30.3826 18.7557 30.6129C18.8551 30.8432 18.9064 31.0908 18.9065 31.3409Z" fill="white"/>
</g>
<defs>
<clipPath id="clip0_490_706">
<rect width="60" height="48" fill="white" transform="translate(0.000244141)"/>
</clipPath>
</defs>
</svg>
