<svg width="43" height="45" viewBox="0 0 43 45" fill="none" xmlns="http://www.w3.org/2000/svg">
<g clip-path="url(#clip0_490_719)">
<path d="M40.3296 5.81462e-05C40.9215 0.0881047 41.5145 0.169107 42.1039 0.264198C42.65 0.353418 42.8256 0.551818 42.8521 1.0801C43.048 4.44271 43.048 7.81348 42.8521 11.1761C42.8269 11.6187 42.6332 11.8805 42.1725 11.9615C40.2212 12.3243 38.2169 12.3195 36.2674 11.9474C35.7863 11.8582 35.6756 11.5318 35.6443 11.1115C35.603 10.6474 35.3932 10.2129 35.0527 9.88636C34.7122 9.55983 34.2633 9.36276 33.7871 9.33064C32.862 9.25903 31.8456 9.87066 31.759 10.7758C31.6628 11.7983 31.0974 12.039 30.1952 12.0601V21.0138C30.7293 21.0138 31.2622 21.0138 31.7963 21.0138C33.692 21.0291 35.1151 22.2676 35.3412 24.0943C35.4483 24.9595 35.1656 25.759 34.4018 26.758C37.1179 28.209 36.8942 31.6428 34.3849 32.9259C35.1271 33.7794 35.5024 34.7456 35.2979 35.8749C35.0934 37.0043 34.4282 37.8096 33.3733 38.3743C33.8857 38.9612 34.2502 39.6046 34.3199 40.37C34.4463 41.7693 33.9013 42.8529 32.7069 43.6242C32.2714 43.9048 31.8648 43.8519 31.6363 43.5197C31.4077 43.1875 31.516 42.8153 31.9647 42.5265C32.7201 42.0346 33.0858 41.3526 32.9679 40.4709C32.8572 39.641 32.3664 39.0845 31.5617 38.8039C31.3328 38.736 31.0967 38.6935 30.858 38.6771C30.4767 38.6314 30.2566 38.4423 30.2241 38.0596C30.2164 37.975 30.2263 37.8898 30.2534 37.809C30.2805 37.7283 30.3241 37.6538 30.3816 37.59C30.439 37.5262 30.5092 37.4745 30.5878 37.438C30.6664 37.4014 30.7518 37.3809 30.8388 37.3776C31.1804 37.3435 31.5292 37.3682 31.8733 37.3564C32.4195 37.3491 32.9427 37.1406 33.338 36.7727C33.7333 36.4047 33.9715 35.9046 34.0048 35.3725C34.0601 34.3159 33.2349 33.3932 32.0886 33.2417C32.014 33.2323 31.9394 33.2312 31.8648 33.2241C31.4835 33.1889 31.2562 32.9893 31.2249 32.6137C31.2167 32.5291 31.2261 32.4438 31.2526 32.3629C31.2791 32.2819 31.3222 32.2071 31.3792 32.1429C31.4362 32.0787 31.506 32.0265 31.5843 31.9893C31.6626 31.9522 31.7478 31.931 31.8348 31.9269C32.1642 31.9038 32.4946 31.8971 32.8248 31.9069C34.0481 31.8929 34.9755 31.0417 35.0056 29.903C35.0369 28.7936 34.113 27.8486 32.921 27.7828C32.5769 27.7629 32.2305 27.7828 31.8865 27.7711C31.504 27.7558 31.2694 27.5574 31.2261 27.1841C31.1828 26.8108 31.4125 26.5467 31.8071 26.4739C31.9984 26.4398 32.198 26.4457 32.3857 26.3999C33.413 26.1499 34.1167 25.1837 33.9952 24.2058C33.8629 23.1316 33.0136 22.3533 31.9045 22.3357C30.6138 22.3157 29.3219 22.3357 28.0312 22.3357H21.1422C21.0219 22.3357 20.9016 22.3357 20.7813 22.3357C20.3543 22.3146 20.0728 22.0633 20.0596 21.6994C20.0464 21.3355 20.329 21.049 20.7476 21.0279C21.1663 21.0068 21.6173 21.0209 22.0528 21.0197H22.5857C22.5857 20.3975 22.6013 19.8152 22.5712 19.2353C22.5712 19.1273 22.3932 18.9782 22.2657 18.9336C21.2661 18.5814 20.2749 18.6307 19.3595 19.1684C16.333 20.9293 13.3153 22.7047 10.3065 24.4946C10.238 24.5402 10.1803 24.5994 10.1372 24.6685C10.0941 24.7375 10.0665 24.8147 10.0563 24.8949C10.0459 30.8132 10.0439 36.7303 10.0503 42.6463C10.0582 42.7072 10.0715 42.7672 10.09 42.8259H29.1138C29.2935 42.8156 29.4737 42.8243 29.6515 42.8517C30.0003 42.9292 30.2048 43.1616 30.1892 43.5127C30.191 43.6693 30.1311 43.8206 30.0219 43.9353C29.9126 44.05 29.7624 44.1194 29.6022 44.129C29.4227 44.146 29.2422 44.1507 29.0621 44.1431C22.6234 44.1431 16.1842 44.1431 9.74473 44.1431C9.44862 44.1229 9.15622 44.2169 8.93038 44.4049C8.43122 44.8067 7.79923 45.0174 7.15249 44.9977C5.77156 44.9977 4.38582 44.9977 3.00971 44.9977C1.23303 44.9907 0.0217056 43.812 0.0084737 42.0628C-0.00235238 40.6423 0.0084737 39.2219 0.0084737 37.8014V25.5441C0.0084737 23.5414 1.16567 22.4155 3.2154 22.4144C4.43154 22.4144 5.64767 22.4331 6.86259 22.4144C7.86581 22.3956 8.72348 22.6761 9.41755 23.4615C9.56069 23.3817 9.70023 23.3066 9.83736 23.2267C12.7139 21.5347 15.59 19.8418 18.4657 18.1482C19.6686 17.4438 20.9401 17.2173 22.315 17.5612C22.386 17.5788 22.4606 17.5847 22.5724 17.6011V12.0812C22.1322 11.8863 21.4802 12.1517 21.2492 11.6034C21.0736 11.1867 21.0821 10.6971 20.993 10.143C19.9598 10.2604 18.9036 10.2945 17.892 10.5222C16.4088 10.8556 14.9413 11.2841 13.4954 11.7537C11.8342 12.2949 10.1814 11.4273 9.96246 9.75209C9.91561 9.24543 10.0091 8.73578 10.2331 8.27643C10.7888 7.11422 11.6056 6.11518 12.5523 5.22415C12.9372 4.86023 13.321 4.8297 13.6169 5.12437C13.9128 5.41903 13.819 5.78178 13.4966 6.17506C12.7917 7.04378 12.0928 7.91955 11.4516 8.83171C11.116 9.3013 11.2111 9.81901 11.5828 10.2076C11.9545 10.5962 12.414 10.7394 12.9312 10.5351C15.474 9.52452 18.1804 8.96248 20.9245 8.87515V3.16973C19.957 3.14195 18.9923 3.28349 18.076 3.58766C17.2436 3.86471 16.4449 4.24038 15.6329 4.57848C15.2384 4.74283 14.8715 4.65126 14.6947 4.33312C14.5178 4.01498 14.6321 3.65458 14.9882 3.42683C15.0507 3.38692 15.1193 3.35639 15.1854 3.32117C16.8872 2.40687 18.7868 1.89915 20.7284 1.83965C20.8162 1.83965 20.9052 1.83143 21.0327 1.82438C21.0652 1.56494 21.0989 1.30902 21.1302 1.05309C21.1999 0.466118 21.3707 0.308809 21.9878 0.258329C22.795 0.191414 23.6021 0.125671 24.4093 0.0552341C24.4968 0.0414146 24.5833 0.0214036 24.6679 -0.00463867H28.0829L30.7642 0.253633C31.439 0.319374 31.593 0.464945 31.6724 1.10945C31.8047 2.18361 32.6263 2.90794 33.6969 2.8962C34.7434 2.88446 35.5565 2.11317 35.6564 1.03783C35.7033 0.529511 35.8801 0.341679 36.3986 0.260676C36.9892 0.170282 37.5798 0.0834079 38.1704 -0.00463867L40.3296 5.81462e-05ZM1.35572 33.7066C1.35572 36.4748 1.35572 39.2426 1.35572 42.01C1.35572 43.0842 1.96319 43.677 3.0482 43.6794C4.38342 43.6794 5.71904 43.6794 7.05505 43.6794C8.06188 43.6794 8.70062 43.0748 8.70182 42.0992C8.70663 36.5042 8.70663 30.9083 8.70182 25.3117C8.70182 24.3338 8.06308 23.7327 7.05626 23.7292C5.74991 23.7292 4.44477 23.7292 3.13842 23.7292C1.93552 23.7292 1.35572 24.2962 1.35572 25.4901C1.35251 28.2286 1.35171 30.9674 1.35331 33.7066H1.35572ZM30.3456 1.56963C30.2891 1.5464 30.2307 1.52756 30.1712 1.51329C27.6922 1.26051 25.1933 1.2546 22.7132 1.49567C22.4437 1.5215 22.4161 1.65064 22.398 1.86547C22.191 4.4188 22.1685 6.98319 22.3307 9.53961C22.3547 9.92819 22.404 10.3144 22.4413 10.7042C25.0669 10.9892 27.7169 10.9873 30.342 10.6983C30.6026 7.66071 30.6022 4.60716 30.3408 1.56963H30.3456ZM36.9471 1.51563V10.7206C37.1184 10.7607 37.2925 10.7889 37.4679 10.8051C38.6708 10.8051 39.8605 10.8051 41.0574 10.8051C41.411 10.8051 41.553 10.6666 41.5518 10.3097C41.5397 7.48636 41.5421 4.663 41.5373 1.84082C41.5293 1.72516 41.5128 1.61022 41.488 1.49685C39.9829 1.24844 38.4452 1.25479 36.9423 1.51563H36.9471ZM23.9834 12.1986V20.9915H28.7758V12.1986H23.9834ZM35.5313 3.67571C34.2947 4.39534 33.0966 4.37186 31.8829 3.75319V8.37152C32.4976 8.25413 33.1062 8.02638 33.7113 8.03694C34.3163 8.04751 34.9322 8.28935 35.5313 8.4267V3.67571Z" fill="white"/>
<path d="M38.1679 0C37.5772 0.0880465 36.9866 0.17492 36.396 0.265315C35.8775 0.346317 35.7007 0.534149 35.6538 1.04247C35.554 2.11781 34.7408 2.8891 33.6943 2.90084C32.6237 2.91258 31.8021 2.18825 31.6698 1.11408C31.5904 0.46958 31.4364 0.324012 30.7616 0.258271L28.0828 0H38.1679Z" fill="white"/>
</g>
<defs>
<clipPath id="clip0_490_719">
<rect width="43" height="45" fill="white"/>
</clipPath>
</defs>
</svg>
