<svg width="43" height="43" viewBox="0 0 43 43" fill="none" xmlns="http://www.w3.org/2000/svg">
<path d="M0 4.19757C0.115872 3.98286 0.294801 3.80885 0.512655 3.69901C0.730508 3.58917 0.97681 3.54877 1.21834 3.58328C1.97084 3.61399 2.75405 3.58328 3.48607 3.58328C4.60357 3.53511 5.6991 3.90394 6.55994 4.61815C7.42077 5.33236 7.98546 6.34097 8.14439 7.44815C8.33891 8.47196 8.5437 9.49577 8.74334 10.5196C8.76782 10.6064 8.79686 10.6918 8.83036 10.7755H15.1319C15.2579 10.7649 15.3847 10.7806 15.5042 10.8216C15.6238 10.8626 15.7335 10.928 15.8265 11.0137C15.9194 11.0994 15.9934 11.2035 16.044 11.3193C16.0945 11.4352 16.1203 11.5603 16.1199 11.6867C16.1191 11.8097 16.0926 11.9311 16.0421 12.0432C15.9916 12.1553 15.9181 12.2555 15.8265 12.3375C15.7349 12.4195 15.6271 12.4813 15.5101 12.5191C15.3931 12.5569 15.2695 12.5699 15.1473 12.557H9.56238C9.44976 12.557 9.34226 12.557 9.17845 12.557C9.3525 13.4375 9.51631 14.2974 9.69035 15.1523C10.465 19.0053 11.2363 22.8582 12.0042 26.7111C12.1168 27.2691 12.2141 27.8373 12.3523 28.3902C12.383 28.4977 12.5519 28.5796 12.6748 28.6564C12.7976 28.7332 12.8078 28.6564 12.8795 28.6564C19.8209 28.6564 26.7641 28.6564 33.7089 28.6564C34.0826 28.6564 34.2516 28.5847 34.3079 28.1803C34.3949 27.5302 34.5485 26.8903 34.6867 26.2504C34.7024 26.1318 34.7414 26.0173 34.8014 25.9137C34.8614 25.8102 34.9412 25.7194 35.0363 25.6467C35.1314 25.5739 35.2398 25.5207 35.3555 25.4899C35.4712 25.4591 35.5918 25.4514 35.7105 25.4672C35.833 25.483 35.9507 25.5246 36.056 25.5892C36.1613 25.6538 36.2517 25.7399 36.3213 25.8419C36.391 25.9439 36.4382 26.0595 36.46 26.1811C36.4817 26.3027 36.4775 26.4275 36.4476 26.5473C36.2582 27.607 36.0432 28.6615 35.818 29.716C35.7822 29.927 35.6713 30.1179 35.5056 30.2534C35.34 30.3889 35.1309 30.4599 34.917 30.4532C34.7788 30.4532 34.6406 30.4532 34.4973 30.4532H12.4854C11.0316 30.4532 9.57261 30.4532 8.1188 30.4532C7.97502 30.4415 7.83057 30.4653 7.69816 30.5226C7.56575 30.5798 7.44947 30.6687 7.35947 30.7815C7.26948 30.8942 7.20855 31.0273 7.18207 31.1691C7.15559 31.311 7.16438 31.4571 7.20763 31.5947C7.25421 31.7646 7.35186 31.9162 7.48736 32.0288C7.62286 32.1414 7.78966 32.2097 7.96524 32.2244C8.13571 32.2348 8.30667 32.2348 8.47714 32.2244H38.1215C38.2751 32.2244 38.4287 32.2244 38.5823 32.2244C38.8086 32.2376 39.0208 32.3386 39.1737 32.5059C39.3267 32.6732 39.4083 32.8936 39.4013 33.1202C39.404 33.2325 39.3846 33.3442 39.3442 33.4489C39.3037 33.5537 39.243 33.6494 39.1655 33.7307C39.088 33.812 38.9953 33.8773 38.8925 33.9227C38.7898 33.9681 38.6792 33.9929 38.5669 33.9955C38.4441 33.9955 38.3161 33.9955 38.1881 33.9955C28.2367 33.9955 18.2853 33.9955 8.33383 33.9955C7.94455 34.0055 7.55606 33.9555 7.18204 33.8471C6.59215 33.6486 6.09065 33.2493 5.76508 32.7188C5.43951 32.1883 5.31052 31.5604 5.40059 30.9446C5.49334 30.3006 5.8161 29.7121 6.3092 29.2877C6.8023 28.8632 7.43239 28.6317 8.08296 28.6359C8.87642 28.6359 9.675 28.6359 10.5299 28.6359C10.3917 27.9192 10.2637 27.2538 10.1306 26.5883L7.81167 14.9885C7.29977 12.5416 6.84927 10.0845 6.35272 7.63756C6.25399 6.97151 5.90886 6.3668 5.38559 5.94306C4.86232 5.51932 4.19905 5.30745 3.52703 5.34936C2.74382 5.34936 1.96059 5.34936 1.17737 5.34936C0.933734 5.38548 0.685035 5.33845 0.471412 5.21585C0.257789 5.09325 0.0917143 4.90223 0 4.67364V4.19757Z" fill="white"/>
<path d="M43 12.598C42.8362 13.3914 42.7236 14.1951 42.4881 14.9681C41.8948 16.9602 40.7789 18.7571 39.2564 20.1722C37.7338 21.5872 35.8602 22.5688 33.83 23.0149C31.7999 23.461 29.6873 23.3554 27.7118 22.7091C25.7363 22.0627 23.9699 20.8991 22.596 19.3393C21.2222 17.7795 20.2911 15.8802 19.8994 13.8389C19.5078 11.7975 19.6699 9.68856 20.3688 7.73103C21.0678 5.7735 22.2781 4.03883 23.8742 2.70722C25.4702 1.3756 27.3937 0.495614 29.4448 0.158689C29.7621 0.112618 30.0744 0.0511905 30.3918 0H32.3217C32.4134 0.0316708 32.5075 0.0556502 32.6032 0.0716742C34.9196 0.324364 37.1068 1.26639 38.8819 2.77589C40.657 4.28539 41.9382 6.29287 42.5598 8.53857C42.7492 9.23476 42.8464 9.95656 42.9897 10.6681L43 12.598ZM41.2083 11.3796C41.1542 9.42167 40.518 7.52422 39.3811 5.92927C38.2441 4.33433 36.6578 3.11421 34.8246 2.42449C32.9913 1.73477 30.9941 1.6067 29.0878 2.05668C27.1815 2.50666 25.4524 3.51425 24.1211 4.95095C22.7898 6.38766 21.9165 8.18835 21.6128 10.1234C21.309 12.0584 21.5885 14.04 22.4156 15.8155C23.2427 17.591 24.58 19.08 26.2567 20.0924C27.9335 21.1048 29.8738 21.5948 31.8302 21.5C34.4052 21.3712 36.8277 20.2405 38.58 18.3494C40.3324 16.4584 41.2757 13.9569 41.2083 11.3796Z" fill="white"/>
<path d="M13.7754 43C13.4478 42.8822 13.1099 42.7901 12.8028 42.6467C12.0439 42.2788 11.439 41.655 11.0948 40.8851C10.7505 40.1152 10.6888 39.2485 10.9206 38.4376C11.1523 37.6267 11.6627 36.9235 12.3619 36.4518C13.0611 35.9801 13.9042 35.7702 14.7429 35.8589C15.564 35.9584 16.3254 36.3389 16.898 36.9359C17.4705 37.5329 17.8188 38.3096 17.8839 39.1342C17.949 39.9587 17.7268 40.7804 17.2551 41.4599C16.7834 42.1393 16.0911 42.6346 15.2958 42.8617C15.1524 42.9027 15.0091 42.9539 14.8657 43H13.7754ZM14.3334 37.625C13.9776 37.6239 13.6295 37.7286 13.3332 37.9257C13.0369 38.1227 12.8058 38.4033 12.6692 38.7318C12.5326 39.0603 12.4966 39.422 12.5658 39.771C12.6349 40.12 12.8061 40.4407 13.0577 40.6923C13.3093 40.9439 13.6299 41.1151 13.979 41.1842C14.328 41.2534 14.6897 41.2174 15.0182 41.0808C15.3467 40.9442 15.6273 40.713 15.8243 40.4168C16.0214 40.1205 16.126 39.7724 16.125 39.4166C16.121 38.9427 15.931 38.4893 15.5958 38.1542C15.2607 37.819 14.8073 37.629 14.3334 37.625Z" fill="white"/>
<path d="M29.9004 43C29.5728 42.8822 29.2349 42.7901 28.9278 42.6467C28.1689 42.2788 27.564 41.655 27.2198 40.8851C26.8755 40.1152 26.8138 39.2485 27.0456 38.4376C27.2773 37.6267 27.7877 36.9235 28.4869 36.4518C29.1861 35.9801 30.0292 35.7702 30.8679 35.8589C31.689 35.9584 32.4504 36.3389 33.023 36.9359C33.5955 37.5329 33.9438 38.3096 34.0089 39.1342C34.074 39.9587 33.8518 40.7804 33.3801 41.4599C32.9084 42.1393 32.2161 42.6346 31.4208 42.8617C31.2774 42.9027 31.1341 42.9539 30.9907 43H29.9004ZM30.443 37.625C30.0879 37.627 29.7413 37.7342 29.4471 37.9331C29.1528 38.132 28.9241 38.4136 28.7898 38.7424C28.6556 39.0712 28.6217 39.4324 28.6926 39.7804C28.7635 40.1284 28.936 40.4476 29.1882 40.6976C29.4404 40.9477 29.761 41.1174 30.1096 41.1853C30.4582 41.2533 30.8191 41.2164 31.1467 41.0793C31.4744 40.9422 31.754 40.7111 31.9504 40.4152C32.1468 40.1193 32.251 39.7718 32.25 39.4166C32.2447 38.9405 32.0521 38.4855 31.7139 38.1503C31.3758 37.815 30.9192 37.6263 30.443 37.625Z" fill="white"/>
<path d="M29.4396 14.0109L32.5111 10.5146C33.3864 9.51634 34.2567 8.51302 35.1371 7.51992C35.2602 7.3565 35.4364 7.24103 35.6354 7.19339C35.8344 7.14575 36.0437 7.1689 36.2275 7.25885C36.4079 7.34022 36.5544 7.48165 36.6422 7.65902C36.7299 7.83639 36.7534 8.03872 36.7087 8.23148C36.6619 8.42189 36.5687 8.59776 36.4374 8.74338C34.3897 11.0811 32.3421 13.4171 30.2945 15.7514C30.2166 15.8659 30.113 15.9606 29.9919 16.0278C29.8708 16.095 29.7356 16.1328 29.5972 16.1383C29.4588 16.1438 29.321 16.1167 29.195 16.0593C29.0689 16.0019 28.9581 15.9157 28.8714 15.8077C27.7111 14.661 26.5542 13.5041 25.4007 12.3369C25.3065 12.2558 25.2303 12.1559 25.1769 12.0437C25.1234 11.9315 25.0938 11.8094 25.0901 11.6852C25.0864 11.5609 25.1086 11.4373 25.1552 11.3221C25.2019 11.2069 25.272 11.1026 25.3612 11.016C25.4503 10.9294 25.5565 10.8622 25.673 10.8189C25.7894 10.7755 25.9137 10.7568 26.0378 10.7641C26.1618 10.7713 26.2831 10.8043 26.3937 10.8609C26.5044 10.9176 26.602 10.9966 26.6805 11.093C27.5166 11.9189 28.3458 12.7499 29.1683 13.586C29.2739 13.7173 29.3649 13.8598 29.4396 14.0109Z" fill="white"/>
</svg>
