<svg width="45" height="50" viewBox="0 0 45 50" fill="none" xmlns="http://www.w3.org/2000/svg">
<path d="M12.0602 0C12.9463 0.291667 13.8363 0.571614 14.7147 0.882812C14.9535 0.982922 15.1781 1.11427 15.3825 1.27344C15.7658 1.54297 15.8594 1.9375 15.6424 2.28906C15.4254 2.64062 14.9927 2.75521 14.5808 2.48828C13.7802 1.95907 12.8689 1.62138 11.9173 1.5013C11.7263 1.47786 11.5275 1.47266 11.2312 1.45182C11.3937 1.63281 11.4911 1.7513 11.5938 1.85807C12.5899 2.86068 13.586 3.86241 14.5821 4.86328C15.5475 5.83594 15.5514 6.89193 14.5977 7.85807C13.9806 8.48047 13.3634 9.10417 12.7397 9.72136C11.8614 10.5911 10.7908 10.5898 9.90466 9.70964C8.77946 8.58724 7.66336 7.45573 6.41733 6.36719C6.4797 6.79687 6.51218 7.23437 6.60963 7.65625C7.31905 10.7435 10.3776 12.7852 13.4803 12.2422C13.7666 12.1772 14.0654 12.1955 14.3416 12.2949C14.6178 12.3944 14.8599 12.5708 15.0395 12.8034C15.2461 13.0521 15.4293 13.1003 15.7411 12.9583C16.366 12.671 17.068 12.5987 17.7381 12.7526C18.0097 12.8125 18.15 12.7409 18.2981 12.5234C18.5346 12.1745 18.8075 11.8516 19.1089 11.4596C18.6243 10.9818 18.1461 10.5039 17.6628 10.0273C17.4577 9.84175 17.305 9.60525 17.2201 9.34168C17.1353 9.07811 17.1212 8.79678 17.1794 8.52604C17.3918 7.2816 17.2072 6.00174 16.6519 4.86849C16.4012 4.34765 16.6 3.85156 17.0872 3.73958C17.5238 3.63932 17.7914 3.86979 17.9707 4.2474C18.6148 5.572 18.8526 7.05822 18.6542 8.51823C18.6305 8.64294 18.6406 8.77171 18.6833 8.89121C18.7261 9.01071 18.7999 9.1166 18.8971 9.19792C19.2791 9.57161 19.6338 9.97266 20.0262 10.3893C20.3238 10.0508 20.5602 9.76823 20.8058 9.4987C21.7153 8.52214 22.8353 8.21875 24.0826 8.61458C25.2988 9.00521 26.0095 9.88151 26.1771 11.1706C26.1818 11.2194 26.1904 11.2677 26.2031 11.3151C26.2151 11.3446 26.2313 11.3723 26.2512 11.3971C28.3885 11.3398 29.6138 12.5573 29.8411 14.4232C30.7338 14.3398 31.5705 14.513 32.2838 15.1029C32.6144 15.3758 32.8843 15.715 33.0763 16.0987C33.2683 16.4823 33.3781 16.902 33.3986 17.3307C33.843 17.3789 34.2666 17.3828 34.6693 17.4766C35.0802 17.5777 35.4654 17.7637 35.8003 18.0228C36.1352 18.2818 36.4124 18.6082 36.614 18.9809C36.8156 19.3536 36.9372 19.7645 36.9711 20.1871C37.005 20.6097 36.9503 21.0347 36.8106 21.4349C36.6925 21.7805 36.6418 22.1456 36.6612 22.5104C36.7417 23.7747 36.8665 25.0365 36.9743 26.3047C37.6629 26.3841 38.3412 26.4128 38.9986 26.5456C40.8367 26.9264 42.4661 27.9825 43.5666 29.5063C44.667 31.03 45.1589 32.9112 44.9455 34.78C44.8896 35.2643 44.6857 35.6289 44.2361 35.7943C43.7865 35.9596 43.35 35.8281 42.9966 35.4701C41.7276 34.1888 40.4556 32.911 39.1805 31.6367C38.7024 31.1563 38.6049 31.1589 38.1203 31.6445L36.5728 33.1992C35.9894 33.7865 35.9881 33.832 36.5585 34.4036C37.7734 35.6237 38.983 36.849 40.207 38.0599C40.5968 38.4427 40.8397 38.8555 40.6357 39.4062C40.4317 39.957 39.9861 40.1029 39.4365 40.1445C37.5435 40.314 35.6571 39.7554 34.16 38.582C34.073 38.5156 33.9833 38.4518 33.8079 38.3216C33.8079 39.194 33.7962 39.9792 33.8196 40.7643C33.8196 40.875 33.9768 40.9961 34.0795 41.0872C34.4961 41.4415 34.8288 41.8842 35.0535 42.3832C35.2783 42.8823 35.3894 43.4252 35.3788 43.9727C35.3879 45.6328 35.371 47.293 35.3892 48.9518C35.3892 49.3958 35.2774 49.7435 34.9097 49.9935H34.4238C34.0444 49.7812 33.9041 49.4648 33.9157 49.026C33.9339 47.3984 33.9248 45.7708 33.9222 44.1445C33.9222 42.569 33.0465 41.6862 31.4938 41.6849H20.7486C19.2116 41.6849 18.3462 42.5521 18.341 44.1042C18.341 45.6979 18.3293 47.293 18.341 48.888C18.341 49.3359 18.2657 49.7188 17.8863 49.9935H17.3016C16.9651 49.7161 16.8637 49.362 16.8689 48.9271C16.8884 47.2995 16.8858 45.6719 16.8689 44.0443C16.8598 42.7721 17.3289 41.7422 18.3241 40.9453C18.458 40.8194 18.5373 40.646 18.545 40.4622C18.5623 38.9648 18.5645 37.4679 18.5515 35.9714C18.5382 35.2003 18.2704 34.4554 17.7901 33.8529C17.0538 32.872 16.3202 31.8863 15.5891 30.8958C15.3747 30.6094 15.2903 30.2682 15.5436 30.0039C15.7376 29.8259 15.9877 29.7217 16.2504 29.7096C16.4142 29.7005 16.6402 29.8776 16.752 30.0312C17.5796 31.1159 18.4034 32.2044 19.196 33.3151C19.7578 34.1229 20.0494 35.0885 20.0288 36.0729C20.0288 37.4375 20.0288 38.8073 20.0288 40.2044H32.3436C32.3436 39.3737 32.3254 38.5312 32.3436 37.6901C32.3798 37.0118 32.2396 36.3357 31.9369 35.7279C31.2873 34.4505 31.1573 33.0625 31.308 31.638C31.3214 31.4106 31.2448 31.187 31.095 31.0156C27.8164 27.7023 24.5296 24.3971 21.2346 21.1003C20.5005 20.3646 19.4701 20.4284 18.8283 21.2305C18.6061 21.5104 18.3917 21.7969 18.1565 22.0651C17.8486 22.4154 17.4419 22.4648 17.1171 22.2148C16.7923 21.9648 16.7351 21.5443 17.0105 21.1732C17.3057 20.7663 17.6219 20.3752 17.9577 20.0013C18.3383 19.5815 18.8389 19.2896 19.3912 19.1654C19.9434 19.0412 20.5204 19.0908 21.0436 19.3073C21.7491 19.5924 22.4455 19.901 23.1484 20.1914C24.0761 20.5755 25.0038 20.2422 25.3572 19.4102C25.7107 18.5781 25.3391 17.7031 24.4386 17.2878C22.3208 16.3112 20.1986 15.3433 18.0721 14.3841C16.9729 13.888 15.9048 14.2057 15.2227 15.2148C14.1755 16.7617 13.136 18.3129 12.1044 19.8685C11.2247 21.1927 11.2611 22.6341 12.2031 23.9128C12.9827 24.9714 13.7779 26.0208 14.5626 27.0768C14.9174 27.556 14.9018 28.0052 14.5302 28.276C14.1586 28.5469 13.7662 28.4453 13.4128 27.9753C12.602 26.8984 11.7873 25.8229 10.9935 24.7331C9.73705 23.0078 9.67858 20.9062 10.8518 19.1185C11.8588 17.5833 12.8957 16.069 13.9195 14.5456C14.0182 14.3984 14.1157 14.25 14.2092 14.1094C14.0377 13.7396 13.7909 13.6927 13.4128 13.7435C8.67682 14.3802 4.48657 10.2279 5.03488 5.46354C5.09335 4.94922 5.27524 4.55859 5.78457 4.3776C6.2939 4.19661 6.69408 4.41276 7.04489 4.76823C8.2749 6.01476 9.51183 7.25868 10.7557 8.5C11.3079 9.05339 11.3547 9.05339 11.9251 8.48568C12.4647 7.94575 13.0035 7.40452 13.5414 6.86198C13.9559 6.44531 13.9598 6.3138 13.5505 5.90104C12.2694 4.60938 10.9818 3.32422 9.70197 2.03125C9.22253 1.54557 9.10689 0.976561 9.48629 0.552082C9.71366 0.291665 10.0983 0.180988 10.4127 0.00260274L12.0602 0ZM43.4682 33.8411L43.567 33.7904C43.5228 33.4531 43.4994 33.112 43.437 32.7799C42.7757 29.5664 39.9198 27.5026 36.6807 27.9271C35.9349 28.0247 35.358 27.8659 34.8616 27.2956C34.3653 26.7253 33.8144 26.1927 33.3129 25.6693C30.8442 26.6732 29.237 25.7995 28.5288 23.1471C26.7007 23.0104 26.3954 22.8594 25.3105 21.543L24.1658 21.8685L24.0566 22.0078C24.2165 22.0875 24.3673 22.1844 24.5062 22.2969C27.1109 24.901 29.7129 27.51 32.3124 30.1237C32.5228 30.3137 32.6803 30.5552 32.7696 30.8245C32.8588 31.0938 32.8768 31.3818 32.8217 31.6602C32.596 33.0026 32.83 34.382 33.4858 35.5742C34.1416 36.7664 35.1806 37.7012 36.4338 38.2266C37.154 38.5654 37.9469 38.7197 38.7414 38.6758C38.5737 38.4974 38.4698 38.3789 38.3581 38.2682C37.3628 37.2656 36.3636 36.2682 35.3697 35.2643C34.4705 34.3529 34.4602 33.2852 35.3515 32.3815C35.9769 31.7452 36.6066 31.1124 37.2407 30.4831C38.1398 29.5925 39.2091 29.5912 40.1121 30.4831C41.1256 31.4883 42.1286 32.5065 43.1382 33.5169C43.2343 33.6302 43.3539 33.7344 43.4682 33.8411ZM35.6048 20.4388C35.5074 19.7565 35.128 19.2005 34.5316 18.9596C34.2142 18.8291 33.8639 18.8021 33.5303 18.8825C33.1968 18.963 32.897 19.1467 32.6736 19.4076C31.9434 20.2357 31.2314 21.0781 30.5168 21.9193C29.8671 22.6901 29.8788 23.612 30.5506 24.2188C31.2223 24.8255 32.2539 24.7695 32.8971 24.0482C33.6624 23.1875 34.4186 22.3164 35.1397 21.4193C35.3593 21.1445 35.4528 20.7682 35.6048 20.4388ZM31.9954 17.4844C31.9187 16.7734 31.5484 16.2279 30.9196 15.9818C30.6092 15.8558 30.2674 15.8295 29.9415 15.9068C29.6156 15.984 29.3217 16.1608 29.1005 16.4128C28.4197 17.1745 27.6986 17.9115 27.123 18.7487C26.7839 19.2422 26.6851 19.905 26.5006 20.4974C26.4746 20.582 26.5656 20.7096 26.6176 20.8099C26.7404 21.0402 26.9167 21.2374 27.1317 21.3849C27.3467 21.5324 27.5939 21.6258 27.8526 21.6573C28.1112 21.6887 28.3736 21.6572 28.6175 21.5655C28.8614 21.4737 29.0797 21.3244 29.2539 21.1302C30.0607 20.2435 30.8364 19.3268 31.5926 18.3958C31.7914 18.1445 31.8642 17.7917 31.9954 17.4844ZM19.4272 13.3841L22.4403 14.7578C23.0822 14.0104 23.7006 13.3008 24.3061 12.5807C24.9116 11.8607 24.8726 10.9258 24.2386 10.3477C24.079 10.2028 23.8925 10.0909 23.6897 10.0183C23.487 9.94576 23.2719 9.91394 23.0569 9.92471C22.8419 9.93547 22.6311 9.9886 22.4365 10.0811C22.242 10.1735 22.0676 10.3035 21.9232 10.4635C21.0916 11.3958 20.2978 12.362 19.4272 13.3841ZM23.8319 15.3841C24.8401 15.8828 25.903 16.1654 26.5084 17.1836C27.0139 16.5938 27.4881 16.0612 27.9377 15.5104C28.5094 14.8151 28.4574 13.8932 27.8272 13.319C27.5211 13.0327 27.1157 12.8775 26.6971 12.8862C26.2785 12.895 25.8798 13.0671 25.5859 13.3659C24.9831 13.9987 24.4347 14.6836 23.8319 15.3841ZM35.2787 23.5339L34.4446 24.5039L35.471 25.6758C35.4073 25.0117 35.3463 24.3372 35.2748 23.5339H35.2787Z" fill="white"/>
<path d="M31.0222 44.6615C31.025 44.8064 30.9846 44.9489 30.9061 45.0706C30.8277 45.1924 30.7147 45.2879 30.5817 45.3449C30.4488 45.4019 30.3018 45.4179 30.1598 45.3907C30.0177 45.3635 29.8869 45.2944 29.7843 45.1923C29.6817 45.0902 29.6118 44.9597 29.5836 44.8175C29.5554 44.6753 29.5703 44.528 29.6262 44.3943C29.6821 44.2606 29.7766 44.1467 29.8975 44.0672C30.0185 43.9877 30.1603 43.9461 30.305 43.9479C30.4929 43.9525 30.6719 44.029 30.8053 44.1617C30.9386 44.2944 31.0163 44.4732 31.0222 44.6615Z" fill="white"/>
</svg>
